<svg version="1.1" id="Layer_1" xmlns="http://www.w3.org/2000/svg" xmlns:xlink="http://www.w3.org/1999/xlink" x="0px" y="0px"
	 width="100%" viewBox="0 0 1000 1000" enable-background="new 0 0 1000 1000" xml:space="preserve">
<path fill="#FFFFFF" opacity="1.000000" stroke="none" 
	d="
M459.000000,1001.000000 
	C307.500000,1001.000000 156.499985,1000.983826 5.500069,1001.093994 
	C1.750621,1001.096741 0.905755,1000.249084 0.906896,996.500000 
	C1.007416,666.166687 1.007416,335.833344 0.906896,5.500028 
	C0.905755,1.750898 1.750897,0.905753 5.500028,0.906894 
	C335.833344,1.007430 666.166687,1.007430 996.500000,0.906894 
	C1000.249084,0.905753 1001.094238,1.750897 1001.093140,5.500028 
	C1000.992615,335.833344 1000.992615,666.166687 1001.093140,996.500000 
	C1001.094299,1000.249084 1000.249268,1001.096008 996.499939,1001.093750 
	C817.500000,1000.986328 638.500000,1001.000000 459.000000,1001.000000 
z"/>
<path fill="#27ABBF" opacity="1.000000" stroke="none" 
	d="
M667.972107,503.985962 
	C672.413757,500.572723 676.646362,496.857758 680.914124,493.183594 
	C682.621887,491.713318 684.590332,490.357544 686.547791,492.522888 
	C688.613342,494.807739 686.702942,496.507172 685.091858,497.934509 
	C679.017151,503.316315 672.860474,508.605652 666.775024,513.975525 
	C665.548035,515.058289 664.498047,516.341675 663.104065,517.743530 
	C658.095276,526.346680 654.746643,535.446533 649.598938,543.648010 
	C619.878906,590.999512 577.529541,618.553040 521.880798,625.333435 
	C519.573975,625.614441 517.290771,626.116455 514.938904,626.013733 
	C513.470947,625.949707 511.661713,626.397766 511.055115,624.642578 
	C510.491669,623.012207 511.888855,621.827515 513.002686,620.893982 
	C518.483704,616.300293 523.782227,611.496399 529.263550,606.901184 
	C533.461792,603.381592 537.720642,599.908020 541.804932,595.697388 
	C543.499084,593.912415 545.457275,593.396118 547.340698,592.772888 
	C570.647705,585.060974 590.949585,572.535339 607.947205,554.786987 
	C617.657471,544.647827 625.561829,533.181458 632.241516,520.856201 
	C633.110840,519.252075 633.790039,517.539307 635.242310,515.872192 
	C644.395874,507.982666 653.297119,500.347137 662.148804,492.654297 
	C663.145569,491.787964 664.015808,490.773651 665.105408,490.013092 
	C666.204895,489.245605 667.485840,488.343231 668.747559,489.048828 
	C670.293457,489.913269 669.936157,491.599243 669.672974,493.082184 
	C669.044739,496.622345 667.252625,499.954468 667.972107,503.985962 
z"/>
<path fill="#F461AD" opacity="1.000000" stroke="none" 
	d="
M351.057190,377.742249 
	C349.146118,378.919189 347.491241,380.037079 345.969910,381.314087 
	C344.357971,382.667053 342.852875,383.253906 341.230896,381.409119 
	C339.592377,379.545563 340.418457,378.037964 341.965698,376.705383 
	C347.137634,372.250946 352.074982,367.467682 357.584198,363.475555 
	C364.508362,358.458038 368.855072,351.278534 374.328674,345.059326 
	C405.058899,310.143280 443.505157,290.690094 489.890289,286.910706 
	C496.201202,286.396484 502.490143,285.746399 509.319153,286.505981 
	C509.392365,289.348846 507.069489,290.266754 505.223328,291.592468 
	C496.595978,297.787537 487.700256,303.589935 478.627319,309.751190 
	C478.178619,310.129272 477.996613,310.279236 477.533020,310.647583 
	C476.862488,311.147217 476.457581,311.403412 475.713074,311.799438 
	C463.486145,315.140625 451.626312,318.371429 440.499695,323.893158 
	C428.349396,329.922821 416.888306,336.976013 407.035156,346.315979 
	C398.832428,354.091522 390.567322,361.876923 384.380920,371.502228 
	C383.479706,372.904388 382.227539,374.035553 380.684570,375.361694 
	C370.257324,382.198853 360.253784,389.017242 350.136902,395.664429 
	C348.361725,396.830780 346.727448,398.377106 344.055481,398.166260 
	C345.026398,391.195953 349.013641,385.483978 351.377686,378.745697 
	C351.389343,378.172974 351.380737,377.963074 351.057190,377.742249 
z"/>
<path fill="#2071B1" opacity="1.000000" stroke="none" 
	d="
M403.288635,593.179077 
	C399.016113,589.441895 396.092041,591.181519 392.650940,594.453674 
	C384.706146,602.008484 376.396851,609.182312 368.169281,616.435669 
	C366.414124,617.982971 364.462799,620.632446 361.973267,617.566406 
	C359.832428,614.929871 362.222260,613.359924 363.928680,611.832397 
	C372.348694,604.294922 380.688812,596.662354 389.288208,589.334473 
	C392.235382,586.822998 392.680420,585.477417 389.516083,582.621094 
	C379.385559,573.476379 370.090485,563.529968 362.862518,551.445801 
	C368.110291,545.114197 374.057251,539.932251 381.572571,536.262268 
	C387.066040,539.416321 389.537628,544.913208 393.210419,549.303284 
	C399.862549,557.254456 407.500244,564.010010 415.664551,570.269592 
	C417.496155,571.673828 419.545654,572.866333 420.525757,575.526550 
	C420.444397,578.112915 418.770599,579.368347 417.386963,580.768921 
	C413.056763,585.151978 408.166046,588.914124 403.288635,593.179077 
z"/>
<path fill="#2071B1" opacity="1.000000" stroke="none" 
	d="
M542.679504,595.569153 
	C537.420288,602.480347 530.297974,607.421204 523.835815,613.096191 
	C519.734985,616.697327 515.643188,620.308716 511.069977,624.335876 
	C516.248596,626.098816 520.794312,624.386719 525.109009,623.797913 
	C557.244812,619.412109 586.119751,607.362244 611.164734,586.431274 
	C632.490784,568.608276 648.698364,547.083252 659.371216,521.404419 
	C659.938904,520.038574 660.470276,518.561218 662.503113,518.034729 
	C656.217285,537.289795 645.734680,554.461182 632.068115,569.446533 
	C591.360596,614.082397 540.749695,632.699463 480.741028,625.741455 
	C479.090179,625.549988 477.459869,625.181091 475.430481,624.779541 
	C474.913544,623.650208 475.651825,623.025940 476.309875,621.990112 
	C484.507507,614.121948 492.467194,606.491516 501.920044,600.031738 
	C514.292175,599.047852 526.268799,598.082642 537.974121,595.084106 
	C539.421021,594.713379 540.912781,594.677795 542.679504,595.569153 
z"/>
<path fill="#FBCD19" opacity="1.000000" stroke="none" 
	d="
M343.505310,398.233948 
	C353.984650,391.299255 364.233582,384.599304 374.489716,377.910400 
	C376.152222,376.826141 377.846497,375.790710 379.873657,374.584320 
	C381.193024,375.964050 380.526764,377.339874 379.730133,378.624725 
	C369.328308,395.401337 362.768738,413.581177 359.768311,433.070129 
	C359.667328,433.726013 359.379822,434.341095 358.955139,435.295929 
	C350.468353,441.781525 342.882599,448.908173 333.545166,454.114258 
	C333.119293,434.909637 336.177887,416.324219 343.505310,398.233948 
z"/>
<path fill="#F461AD" opacity="1.000000" stroke="none" 
	d="
M662.695312,396.000366 
	C667.761047,393.647919 670.976501,389.269958 675.167236,386.071747 
	C676.862244,384.778198 678.534424,382.990326 680.704041,385.357483 
	C682.898560,387.751770 681.020020,389.251617 679.431763,390.717987 
	C674.945190,394.860199 670.414246,398.954285 665.798950,403.390961 
	C665.531799,407.715332 668.139709,411.197021 667.747803,415.568359 
	C661.857361,422.524292 655.603271,428.609161 647.765991,433.146912 
	C646.136536,431.979980 645.879333,430.492676 645.602112,429.029633 
	C642.969299,415.136963 638.774841,401.772491 632.190674,389.210175 
	C631.729431,388.330078 631.417236,387.382935 631.324768,386.000427 
	C633.298950,381.597504 637.493164,379.788574 640.324341,376.592255 
	C642.815979,373.779297 645.884338,371.477875 649.147827,369.113342 
	C650.984680,371.773224 652.458923,374.369781 653.992798,377.297913 
	C654.163635,377.998901 654.345886,378.329193 654.788086,378.835571 
	C654.977173,379.050720 654.983826,379.016632 654.968567,379.008301 
	C655.421997,379.424011 655.466736,380.034363 655.821533,380.822571 
	C655.993652,381.061035 655.962158,381.020264 655.957031,380.994995 
	C656.449463,381.443909 656.470337,382.122162 656.861023,382.988953 
	C657.024414,383.265839 657.065002,383.369781 657.034424,383.416504 
	C657.232422,384.133484 657.474792,384.799805 657.827271,385.767242 
	C658.061707,386.032471 657.986816,385.997620 658.002563,385.959412 
	C658.399231,386.412933 658.468323,387.025635 658.865479,387.812744 
	C659.065674,388.036804 658.982910,388.005341 658.996033,387.963074 
	C660.215942,390.532715 660.750854,393.431885 662.695312,396.000366 
z"/>
<path fill="#F461AD" opacity="1.000000" stroke="none" 
	d="
M403.117126,593.551758 
	C407.679047,586.685425 414.794250,582.545227 420.400116,576.334717 
	C422.208740,575.018982 423.534668,575.971069 424.747772,576.735535 
	C437.592407,584.830017 451.344055,590.867065 465.926941,595.043945 
	C466.572693,595.228943 467.127533,595.593140 467.878510,596.309082 
	C468.705994,598.133545 467.810425,599.165344 466.798645,600.020630 
	C460.509766,605.336975 454.900421,611.421326 447.937134,616.498596 
	C441.471497,615.736450 436.484253,611.791199 430.248657,610.180054 
	C429.932251,609.967712 430.022156,609.955139 430.041931,609.996033 
	C429.609955,609.583069 429.000702,609.491211 428.178864,609.145996 
	C427.933655,608.967529 428.024200,608.953308 428.041077,608.995911 
	C427.611938,608.587097 427.011200,608.490906 426.197510,608.151917 
	C425.957489,607.971375 426.019135,607.960999 426.030884,607.989990 
	C425.618042,607.611572 425.071747,607.489075 424.310669,607.187500 
	C424.097382,607.004822 424.025146,606.998901 424.003540,606.969788 
	C423.757721,606.708130 423.513458,606.499023 423.021118,606.234253 
	C422.793121,606.155090 422.348663,606.049744 422.137878,605.961853 
	C421.767914,605.766174 421.608734,605.658447 421.188538,605.428528 
	C414.694855,602.021729 408.692749,598.383240 403.117126,593.551758 
z"/>
<path fill="#F461AD" opacity="1.000000" stroke="none" 
	d="
M345.668976,518.431824 
	C342.374237,512.937683 342.372498,512.935547 337.435150,516.971008 
	C336.791565,517.497009 336.178284,518.059998 335.548035,518.602539 
	C334.006439,519.929749 332.342041,520.648804 330.773407,518.801392 
	C329.152893,516.892883 329.759949,515.086060 331.528656,513.604126 
	C333.438873,512.003723 335.311523,510.329163 337.376404,508.950256 
	C340.011536,507.190491 340.479279,505.230408 339.497101,502.170807 
	C336.595978,493.133423 334.808289,483.835541 334.064209,473.954590 
	C340.115051,467.909668 347.293488,463.951996 354.291687,459.739197 
	C355.145508,459.225189 356.200806,459.281036 357.391968,460.118591 
	C359.186859,466.724182 359.440613,473.208344 360.458984,479.582458 
	C361.692261,487.301849 364.280304,494.674225 365.841309,502.683685 
	C360.002533,509.250214 353.345367,514.319153 345.668976,518.431824 
z"/>
<path fill="#2071B1" opacity="1.000000" stroke="none" 
	d="
M668.192444,503.757355 
	C664.738403,505.308716 666.053650,502.817505 666.328308,501.563599 
	C667.166931,497.735291 668.222534,493.954529 669.193726,490.155273 
	C668.825806,489.849091 668.457886,489.542938 668.089966,489.236786 
	C657.710022,498.106323 647.330078,506.975861 636.632324,515.917358 
	C634.553467,514.539001 635.620605,512.893005 636.215027,511.497864 
	C641.561401,498.950134 644.630676,485.790161 647.045166,472.049011 
	C654.615784,465.526093 661.893188,459.172394 669.158630,452.804016 
	C670.430115,451.689514 671.843323,450.774231 673.741577,452.448334 
	C675.004578,468.066345 672.872375,483.063354 669.425110,497.929169 
	C669.014771,499.698761 668.619873,501.471893 668.192444,503.757355 
z"/>
<path fill="#27ABBF" opacity="1.000000" stroke="none" 
	d="
M345.327454,518.656860 
	C351.583527,513.500610 357.855682,508.679840 364.428192,503.688782 
	C366.441010,503.409912 366.971344,504.741852 367.452179,505.931519 
	C371.354706,515.586365 376.086945,524.814941 381.529663,533.687256 
	C382.050903,534.536926 382.349731,535.486755 381.935944,536.761658 
	C374.804688,540.589355 369.798950,546.584839 363.130005,550.954102 
	C359.887726,549.566833 360.094086,544.000183 356.453064,544.607849 
	C353.803009,545.050049 351.635010,548.398132 349.258789,550.458374 
	C347.005096,552.412354 344.783295,554.403870 342.502747,556.325806 
	C341.126587,557.485535 339.654175,558.085327 338.131531,556.488281 
	C336.516113,554.793945 336.832367,553.182007 338.440582,551.756226 
	C342.655945,548.019043 346.833740,544.231750 351.191437,540.665894 
	C353.546387,538.738892 353.859467,537.029419 352.322723,534.339844 
	C349.533142,529.457520 347.134155,524.351562 345.327454,518.656860 
z"/>
<path fill="#2071B1" opacity="1.000000" stroke="none" 
	d="
M544.812195,290.861725 
	C558.256226,295.388397 571.549072,299.360504 583.746948,306.889954 
	C584.231506,308.550110 583.187134,309.242767 582.260864,309.849884 
	C576.211548,313.814819 570.487244,318.283081 563.678284,321.751465 
	C562.304688,321.998749 561.287476,321.971130 560.367371,321.602722 
	C547.445435,316.429382 534.041260,312.997467 520.113525,310.187500 
	C519.125366,308.348083 520.098328,307.360382 521.135864,306.531586 
	C527.464539,301.475952 533.732666,296.338562 540.371155,291.686859 
	C541.581604,290.838715 542.928894,290.106873 544.812195,290.861725 
z"/>
<path fill="#FBCD19" opacity="1.000000" stroke="none" 
	d="
M674.203613,452.478333 
	C671.961304,451.208588 670.759583,452.645233 669.387695,453.845581 
	C662.649292,459.741577 655.869446,465.590179 648.800293,471.617584 
	C646.785461,470.932404 646.992126,469.335876 647.063782,467.873413 
	C647.543335,458.077393 647.876282,448.288605 646.619263,438.516541 
	C646.406311,436.860992 646.549683,435.189972 647.765137,433.333862 
	C654.289368,427.412476 660.465271,421.833099 666.926208,416.055115 
	C670.112671,417.116547 669.216736,420.089478 669.823364,422.232330 
	C671.787598,429.170837 671.734375,436.502930 673.781982,443.739990 
	C676.314209,442.300751 678.557129,440.588806 680.860962,438.963104 
	C682.912109,437.515594 685.055847,434.563690 687.566223,437.817047 
	C689.884521,440.821533 686.701355,442.153961 684.902710,443.667236 
	C681.463196,446.561096 677.948364,449.365417 674.203613,452.478333 
z"/>
<path fill="#FBCD19" opacity="1.000000" stroke="none" 
	d="
M545.371277,290.843079 
	C542.106018,290.986847 540.261108,293.126740 538.197388,294.697723 
	C532.249023,299.225830 526.392944,303.875214 520.299255,308.734253 
	C517.704529,311.084503 514.735657,310.812286 512.068115,310.345856 
	C502.784363,308.722534 493.658508,310.649597 484.473419,311.167999 
	C482.165253,311.298218 479.871155,311.740021 477.328247,310.321228 
	C484.487640,303.479889 493.285828,298.799011 501.275848,292.965485 
	C503.945068,291.016693 506.642914,289.107178 509.569702,286.927979 
	C517.197083,285.715271 524.342651,287.621216 531.529602,288.688995 
	C535.251831,289.242035 538.179688,288.965454 541.078491,286.227264 
	C544.573975,282.925476 548.568481,280.151520 552.350708,277.153778 
	C554.030212,275.822632 555.720276,274.782227 557.461243,277.077484 
	C559.161377,279.318939 557.783691,280.755920 556.135254,282.096741 
	C552.650574,284.931152 549.151001,287.747131 545.371277,290.843079 
z"/>
<path fill="#2071B1" opacity="1.000000" stroke="none" 
	d="
M649.309937,368.849060 
	C644.585876,375.123840 638.425903,379.750946 632.458374,385.070526 
	C630.272339,385.697510 629.478760,384.279236 628.770447,383.019196 
	C623.229004,373.162567 616.577148,364.133453 608.812622,355.917084 
	C608.008911,355.066650 607.391724,354.087036 607.221985,352.520081 
	C611.768127,346.095612 617.604248,341.594421 624.607544,338.078613 
	C634.596375,346.982574 642.213379,357.466125 649.309937,368.849060 
z"/>
<path fill="#FBCD19" opacity="1.000000" stroke="none" 
	d="
M447.549072,616.678345 
	C454.265259,610.168030 460.965424,603.952209 467.861511,597.475464 
	C468.675079,596.298523 469.664856,595.865112 470.624878,596.052612 
	C480.462494,597.974060 490.554474,598.223816 500.566040,600.969604 
	C492.903015,608.335327 484.994751,615.324341 476.924957,622.614868 
	C473.326935,625.101257 470.014343,622.960754 466.719879,622.464844 
	C463.314270,621.952148 460.009094,620.772034 456.238922,620.119263 
	C451.231262,624.155151 446.588409,628.148682 441.963745,632.163208 
	C440.348236,633.565613 438.709839,634.735107 436.871552,632.580566 
	C435.124146,630.532593 436.230560,628.911926 437.836884,627.457947 
	C441.031677,624.565979 444.242706,621.692078 447.715363,618.430481 
	C447.761627,617.721191 447.611633,617.361877 447.549072,616.678345 
z"/>
<path fill="#1E1E1E" opacity="1.000000" stroke="none" 
	d="
M162.637512,724.571533 
	C162.637512,712.977295 162.585083,701.826538 162.697662,690.677551 
	C162.713333,689.125977 161.468597,686.778687 164.275421,686.155212 
	C166.446182,685.672974 168.008926,686.578247 169.405258,688.344177 
	C177.454132,698.523438 185.591507,708.632751 193.721664,718.747437 
	C194.510010,719.728210 195.454025,720.583801 196.730377,721.921631 
	C198.167297,717.635437 197.103043,713.873169 197.168152,710.191711 
	C197.291748,703.204346 197.225174,696.212891 197.175644,689.223572 
	C197.162140,687.315552 197.461151,685.957703 199.851105,686.071350 
	C202.172440,686.181763 201.898697,687.774597 201.899292,689.262268 
	C201.904129,701.577393 201.906799,713.892456 201.899689,726.207581 
	C201.898941,727.490479 202.268707,728.995667 200.250214,729.209290 
	C197.978317,729.449768 196.169495,729.030518 194.604904,727.004395 
	C188.605896,719.235657 182.426071,711.606506 176.316025,703.923462 
	C174.659317,701.840210 173.073135,699.696411 171.332520,697.686157 
	C170.432144,696.646423 169.723206,694.752380 167.862030,695.623474 
	C166.407928,696.303955 166.941025,697.951172 166.947128,699.214355 
	C166.988937,707.866394 167.123611,716.518433 167.102783,725.170105 
	C167.099045,726.718079 168.218460,729.115723 165.059433,729.235535 
	C161.518448,729.369812 162.935135,726.712646 162.637512,724.571533 
z"/>
<path fill="#F461AD" opacity="1.000000" stroke="none" 
	d="
M563.829834,321.475281 
	C570.429749,316.609406 577.005127,312.123993 583.787598,307.383057 
	C587.472412,307.954163 590.144897,310.350098 593.224243,311.949493 
	C595.293335,313.024170 596.677002,312.951599 598.538818,311.435944 
	C605.883667,305.456696 613.376343,299.658356 620.843933,293.830933 
	C622.756287,292.338593 624.842163,289.976379 627.141418,293.031189 
	C629.205627,295.773682 626.722900,297.123444 624.882690,298.568817 
	C618.610413,303.495392 612.327637,308.410095 606.132446,313.432312 
	C604.668396,314.619232 602.521606,315.422516 602.680298,318.257629 
	C598.037964,324.561981 591.542786,328.337372 585.196045,332.837830 
	C576.919006,330.968414 570.010254,327.079559 563.829834,321.475281 
z"/>
<path fill="#1E1E1E" opacity="1.000000" stroke="none" 
	d="
M798.417358,697.372314 
	C805.273193,686.349976 817.626709,682.428040 828.995483,687.397339 
	C839.227661,691.869873 844.377747,703.301514 840.980957,714.552917 
	C838.365845,723.215088 832.184692,727.994568 823.438904,729.680603 
	C814.439941,731.415405 806.065002,728.318420 800.413391,721.154480 
	C803.988708,719.182373 803.988647,719.182434 807.294983,721.853271 
	C813.578735,726.929138 823.066467,727.261902 829.699646,722.638916 
	C836.084778,718.188843 838.695190,709.691101 836.147156,701.650635 
	C833.813721,694.287415 826.490295,689.300781 818.438110,689.592163 
	C810.203003,689.890198 803.402161,695.073242 801.572205,702.738159 
	C801.040283,704.966125 801.069519,707.361816 801.096069,709.677673 
	C801.114014,711.247070 800.957336,712.238831 799.070496,712.257385 
	C797.331238,712.274475 796.178650,711.875977 796.068542,709.860474 
	C795.837341,705.624939 796.429993,701.555847 798.417358,697.372314 
z"/>
<path fill="#1E1E1E" opacity="1.000000" stroke="none" 
	d="
M684.067017,717.161987 
	C680.193542,724.962097 673.570190,728.107605 665.807617,728.934998 
	C660.545898,729.495850 655.187683,729.110352 649.875732,729.259277 
	C647.599182,729.323059 647.146790,728.255798 647.158936,726.214600 
	C647.232117,713.920105 647.260254,701.624329 647.145203,689.330444 
	C647.119202,686.555481 648.310242,685.959717 650.742676,686.050903 
	C655.056519,686.212585 659.389832,685.978821 663.694336,686.244873 
	C681.869690,687.368103 689.916504,699.426941 684.067017,717.161987 
z"/>
<path fill="#27ABBF" opacity="1.000000" stroke="none" 
	d="
M584.237183,332.748962 
	C590.203247,327.884796 596.168823,323.386902 602.445190,318.754700 
	C610.610046,324.286835 617.974487,330.524902 624.857849,337.774414 
	C619.389648,342.577118 613.808594,347.061707 608.059509,351.850830 
	C606.194092,353.128662 604.966675,352.054626 603.950317,351.022583 
	C598.580688,345.569885 592.791931,340.632446 586.479065,336.302032 
	C585.372681,335.543060 584.546326,334.485321 584.237183,332.748962 
z"/>
<path fill="#1E1E1E" opacity="1.000000" stroke="none" 
	d="
M779.188843,729.235352 
	C776.702942,729.377319 776.152588,727.573120 775.278931,726.230103 
	C773.190247,723.019348 770.664917,719.973877 769.224731,716.486328 
	C766.662964,710.282532 761.981079,709.657593 756.305725,710.170410 
	C754.114685,710.368347 753.419800,711.169128 753.446838,713.200745 
	C753.504517,717.531128 753.443237,721.862915 753.463684,726.193970 
	C753.471008,727.737671 753.646729,729.184326 751.343933,729.272034 
	C748.904480,729.364868 748.746216,728.047424 748.754578,726.139038 
	C748.808777,713.812012 748.783020,701.484680 748.783386,689.157410 
	C748.783386,687.633850 748.650452,686.018982 750.932800,686.095581 
	C757.573792,686.318359 764.287231,685.327698 770.837891,687.029541 
	C775.741760,688.303650 779.195251,691.276978 779.920044,696.504761 
	C780.646667,701.746338 778.273315,705.734802 773.633484,707.900391 
	C770.493713,709.366028 770.726501,710.665833 772.413635,713.073914 
	C775.565247,717.572266 778.434937,722.266846 781.495239,726.830688 
	C783.617065,729.994995 780.857483,728.993408 779.188843,729.235352 
z"/>
<path fill="#1E1E1E" opacity="1.000000" stroke="none" 
	d="
M623.631714,711.698486 
	C623.636780,704.065979 623.635559,696.900146 623.638855,689.734375 
	C623.639648,687.915710 623.268127,685.963745 626.223206,686.054932 
	C628.933655,686.138611 628.438904,688.000488 628.440735,689.572388 
	C628.449524,697.237549 628.682373,704.915405 628.325073,712.565002 
	C627.706848,725.798523 618.193481,732.616089 605.334412,729.384338 
	C598.099487,727.565979 593.656311,722.537170 593.163147,714.210449 
	C592.661560,705.740112 592.997070,697.221802 592.886353,688.725525 
	C592.861389,686.810059 593.529541,686.038086 595.484436,686.053711 
	C597.709412,686.071533 597.785950,687.461487 597.794617,689.061157 
	C597.838745,697.225220 597.577393,705.406860 598.028015,713.548828 
	C598.573242,723.401184 607.331116,728.653809 616.244629,724.806885 
	C621.745544,722.432739 623.185852,717.560181 623.631714,711.698486 
z"/>
<path fill="#1E1E1E" opacity="1.000000" stroke="none" 
	d="
M456.905609,690.490356 
	C452.830902,689.964111 451.939514,691.624451 451.951599,695.010193 
	C451.986786,704.894592 451.848969,704.895142 461.484955,704.895081 
	C463.813263,704.895081 466.141815,704.874512 468.469818,704.901123 
	C470.075256,704.919434 472.012146,704.450806 471.923065,707.150085 
	C471.843658,709.554932 470.067352,709.051514 468.661621,709.064270 
	C464.337921,709.103516 460.008057,709.214417 455.691650,709.033203 
	C452.831268,708.913025 451.706299,710.030518 452.028351,712.791504 
	C452.047485,712.955444 452.032074,713.123840 452.027435,713.290100 
	C451.700104,725.036072 451.700073,725.035400 463.415588,725.036499 
	C466.575409,725.036865 469.735413,725.063660 472.894958,725.036743 
	C474.340027,725.024414 474.992310,725.652283 475.046173,727.113281 
	C475.101501,728.614441 474.428558,729.234680 472.995850,729.233215 
	C465.179413,729.225220 457.362823,729.198547 449.546631,729.240479 
	C447.404602,729.252014 447.232513,728.018555 447.237640,726.331238 
	C447.274994,714.024475 447.319275,701.717041 447.210114,689.411133 
	C447.186310,686.728271 448.206177,685.995239 450.724609,686.042297 
	C457.374634,686.166565 464.028534,686.085632 470.680878,686.082581 
	C472.354797,686.081787 474.148346,685.805908 474.046204,688.438538 
	C473.938599,691.211609 471.875854,690.433472 470.391846,690.461182 
	C466.069305,690.542053 461.744293,690.489990 456.905609,690.490356 
z"/>
<path fill="#1E1E1E" opacity="1.000000" stroke="none" 
	d="
M703.256470,714.992371 
	C703.256897,706.177124 703.329651,697.859558 703.214233,689.544495 
	C703.179077,687.012024 703.909668,685.978516 706.592468,686.036194 
	C713.408936,686.182861 720.230774,686.096924 727.050354,686.075256 
	C728.647034,686.070190 730.039734,686.071167 730.059448,688.308899 
	C730.080078,690.644348 728.542908,690.486755 727.019470,690.488098 
	C721.863159,690.492676 716.705505,690.562683 711.551086,690.464355 
	C709.090210,690.417480 708.108276,691.192322 707.963135,693.853271 
	C707.360962,704.900452 707.264771,704.895264 718.330566,704.895081 
	C720.659241,704.895020 722.988281,704.920166 725.316406,704.884399 
	C726.810852,704.861389 727.929626,705.109924 727.937195,706.998962 
	C727.944824,708.917297 726.785461,709.096008 725.310730,709.087891 
	C720.819885,709.063110 716.325256,709.187195 711.839172,709.039368 
	C709.161255,708.951111 708.083069,709.718994 707.957703,712.640808 
	C707.425537,725.040405 707.325134,725.035828 719.770630,725.036316 
	C722.764587,725.036438 725.758728,725.055603 728.752502,725.033081 
	C730.103333,725.022949 730.941284,725.434143 731.043884,726.970459 
	C731.165955,728.799011 730.228882,729.254395 728.638550,729.248535 
	C720.987427,729.220398 713.335876,729.199097 705.684937,729.247559 
	C703.658691,729.260376 703.187561,728.276672 703.231445,726.468262 
	C703.320251,722.811157 703.256958,719.150269 703.256470,714.992371 
z"/>
<path fill="#1E1E1E" opacity="1.000000" stroke="none" 
	d="
M342.845947,694.777588 
	C347.758514,706.243835 352.529388,717.357910 357.354919,728.599365 
	C353.669128,730.209473 351.741211,728.845398 350.975159,725.506592 
	C349.084381,717.265869 344.703003,713.665344 335.609406,714.628906 
	C326.031586,715.643677 325.919342,714.844482 321.850677,724.717163 
	C320.674591,727.571045 319.796112,730.636902 315.210022,728.591187 
	C321.058105,715.070984 326.934906,701.550781 332.737000,687.998535 
	C333.602386,685.977051 335.176086,686.134216 336.852753,686.065369 
	C338.658813,685.991211 339.541229,686.896912 340.140289,688.477539 
	C340.904663,690.494446 341.841675,692.445862 342.845947,694.777588 
z"/>
<path fill="#1E1E1E" opacity="1.000000" stroke="none" 
	d="
M245.034546,692.582092 
	C250.284988,704.792480 255.388092,716.651489 260.529694,728.600037 
	C257.106720,730.036377 255.036026,729.161316 254.293076,725.880066 
	C252.324905,717.187256 247.624283,713.594238 238.167709,714.633362 
	C226.919449,715.869385 230.240662,712.924438 225.318710,723.859863 
	C224.047806,726.683533 223.722427,730.840271 218.389740,728.579163 
	C224.192581,715.137146 229.995346,701.766541 235.716156,688.360962 
	C236.512238,686.495667 237.761917,686.070007 239.607544,686.038696 
	C241.563934,686.005615 242.724716,686.701111 243.328552,688.567261 
	C243.735489,689.824890 244.360016,691.012085 245.034546,692.582092 
z"/>
<path fill="#1E1E1E" opacity="1.000000" stroke="none" 
	d="
M512.640137,690.451233 
	C509.317871,689.853943 506.428619,689.160889 503.371002,689.930054 
	C499.875977,690.809143 497.622772,692.824768 497.438629,696.378113 
	C497.259094,699.842224 499.522858,701.903870 502.692780,702.780151 
	C505.894531,703.665283 509.196838,704.183289 512.406860,705.042419 
	C519.248230,706.873474 522.554871,711.040222 522.447449,717.473206 
	C522.345154,723.596558 518.582214,727.778259 511.759094,729.404907 
	C505.711945,730.846558 499.873169,730.034363 494.142975,727.873840 
	C492.390747,727.213074 491.250183,726.388000 492.264954,724.196716 
	C493.264496,722.038269 494.576385,722.954041 495.951874,723.527527 
	C500.834351,725.562927 505.852844,726.303406 511.078461,725.120422 
	C514.908203,724.253418 517.354736,722.004761 517.673523,718.011292 
	C518.010498,713.789856 515.910767,710.950745 511.909607,709.775391 
	C508.409882,708.747375 504.783325,708.158020 501.261383,707.196960 
	C495.573761,705.645020 492.630127,701.790100 492.800446,696.386658 
	C492.964752,691.173279 496.405487,687.302185 501.913849,685.985168 
	C506.966949,684.777100 511.841827,685.512207 516.589966,687.293884 
	C517.980103,687.815552 520.158569,688.146423 519.024597,690.659607 
	C517.961426,693.015869 516.410828,691.967224 514.887878,691.270569 
	C514.284424,690.994507 513.640808,690.805969 512.640137,690.451233 
z"/>
<path fill="#1E1E1E" opacity="1.000000" stroke="none" 
	d="
M574.646118,726.981567 
	C570.405212,729.096008 566.197021,729.983398 561.818665,730.067505 
	C551.245361,730.270569 543.131653,725.246765 540.018372,716.618408 
	C536.516846,706.914185 539.007935,696.891235 546.461670,690.694397 
	C553.678894,684.694092 565.855591,683.613708 573.735229,688.273865 
	C575.014343,689.030396 576.462769,689.516235 575.345886,691.634033 
	C574.249817,693.712097 573.111572,692.956238 571.697510,692.242065 
	C567.433105,690.088562 562.975708,689.163452 558.171936,689.977112 
	C548.874329,691.552124 542.962585,699.112854 543.464966,708.953247 
	C543.961060,718.670288 550.361511,724.966675 560.139038,725.284729 
	C564.316650,725.420654 568.471802,725.358276 572.290405,723.219055 
	C573.082153,722.775452 574.122681,721.897888 574.964783,722.953064 
	C575.916565,724.145691 576.665955,725.551575 574.646118,726.981567 
z"/>
<path fill="#2071B1" opacity="1.000000" stroke="none" 
	d="
M356.900513,459.364288 
	C349.236359,464.161011 342.020325,468.749115 334.448090,473.443756 
	C333.230347,467.390533 332.901215,461.201996 333.137207,454.523895 
	C341.158173,447.952789 349.131042,441.843262 357.391479,435.532776 
	C358.634216,435.855011 359.243073,436.797638 359.166443,437.743561 
	C358.587982,444.882904 359.508789,452.153381 356.900513,459.364288 
z"/>
<path fill="#1E1E1E" opacity="1.000000" stroke="none" 
	d="
M399.797363,727.698364 
	C398.197083,730.410522 395.813995,729.103699 393.837280,729.172668 
	C388.346741,729.364258 382.841644,729.123657 377.349426,729.289551 
	C374.733032,729.368469 373.938843,728.535889 373.967987,725.889648 
	C374.101837,713.730591 374.031342,701.569214 374.023438,689.408691 
	C374.022339,687.711670 373.777802,686.046143 376.403412,686.041504 
	C378.918182,686.037048 378.921478,687.516968 378.915588,689.321167 
	C378.883392,699.149414 379.254089,708.996033 378.755920,718.799133 
	C378.478546,724.257935 380.368011,725.660156 385.379578,725.113159 
	C389.001251,724.717896 392.700989,725.058655 396.365540,725.026550 
	C398.086914,725.011475 399.846863,724.832947 399.797363,727.698364 
z"/>
<path fill="#1E1E1E" opacity="1.000000" stroke="none" 
	d="
M290.455597,704.002075 
	C290.455536,711.654236 290.442047,718.806091 290.465393,725.957764 
	C290.471008,727.672607 290.689331,729.273315 288.086639,729.282043 
	C285.555389,729.290527 285.613068,727.822388 285.619568,726.029419 
	C285.656342,715.883972 285.426300,705.731873 285.737122,695.595825 
	C285.868439,691.313477 284.415863,689.930237 280.369110,690.450745 
	C278.569855,690.682190 276.714844,690.457581 274.885864,690.487000 
	C273.291107,690.512695 272.364136,689.966064 272.445465,688.179565 
	C272.511566,686.727905 273.183807,686.095276 274.609680,686.096436 
	C283.590912,686.103638 292.572113,686.101868 301.553314,686.083252 
	C302.990234,686.080322 303.674255,686.709900 303.709045,688.162598 
	C303.741730,689.527832 303.322052,690.429932 301.804199,690.473572 
	C301.638000,690.478333 301.470673,690.469666 301.305695,690.485901 
	C297.885956,690.821350 293.240356,688.892517 291.311218,691.394958 
	C288.886200,694.540588 290.775330,699.398621 290.455597,704.002075 
z"/>
<path fill="#27ABBF" opacity="1.000000" stroke="none" 
	d="
M673.976929,443.536804 
	C671.725098,446.759552 672.022034,444.260956 671.919434,442.882629 
	C671.254639,433.951172 669.714111,425.161774 667.463623,416.150146 
	C667.668396,411.740326 664.610657,408.213318 665.466309,403.891846 
	C669.982727,416.519745 672.547241,429.683685 673.976929,443.536804 
z"/>
<path fill="#27ABBF" opacity="1.000000" stroke="none" 
	d="
M456.148010,620.353882 
	C457.986572,618.261475 459.921204,620.232727 461.891235,620.532959 
	C466.605255,621.251465 471.051483,623.458801 476.367493,623.006592 
	C476.318726,623.382812 475.874054,623.849304 475.235168,624.489868 
	C468.659271,624.098938 462.569641,622.211182 456.148010,620.353882 
z"/>
<path fill="#27ABBF" opacity="1.000000" stroke="none" 
	d="
M447.226044,616.314392 
	C447.627075,616.960754 449.550354,616.819458 448.077026,618.001404 
	C442.144958,615.501831 436.306213,612.953369 430.199860,610.186279 
	C435.972717,611.009644 441.094635,614.532654 447.226044,616.314392 
z"/>
<path fill="#27ABBF" opacity="1.000000" stroke="none" 
	d="
M662.851440,395.804993 
	C659.785156,394.647827 660.348755,391.211517 659.080139,388.300842 
	C660.949951,390.088318 661.324036,393.025146 662.851440,395.804993 
z"/>
<path fill="#27ABBF" opacity="1.000000" stroke="none" 
	d="
M426.191406,608.156128 
	C426.542816,608.157166 427.128143,608.342957 427.885681,608.783630 
	C427.513702,608.805969 426.969513,608.573425 426.191406,608.156128 
z"/>
<path fill="#27ABBF" opacity="1.000000" stroke="none" 
	d="
M655.904724,380.783875 
	C655.705872,380.565826 655.418152,380.070618 655.041870,379.287720 
	C655.240784,379.502228 655.528259,380.004456 655.904724,380.783875 
z"/>
<path fill="#27ABBF" opacity="1.000000" stroke="none" 
	d="
M656.940491,382.953186 
	C656.722473,382.708923 656.420532,382.151978 656.035278,381.282379 
	C656.253418,381.526672 656.554993,382.083618 656.940491,382.953186 
z"/>
<path fill="#27ABBF" opacity="1.000000" stroke="none" 
	d="
M658.009277,385.682648 
	C657.757202,385.409912 657.452637,384.787354 657.075989,383.814026 
	C657.321594,384.086395 657.639221,384.709625 658.009277,385.682648 
z"/>
<path fill="#27ABBF" opacity="1.000000" stroke="none" 
	d="
M659.011841,387.729553 
	C658.762451,387.527740 658.459229,387.018677 658.087158,386.215454 
	C658.331543,386.421600 658.644836,386.921936 659.011841,387.729553 
z"/>
<path fill="#27ABBF" opacity="1.000000" stroke="none" 
	d="
M421.003235,605.428711 
	C421.245880,605.319824 421.518311,605.425415 421.835938,605.748474 
	C421.635193,605.788879 421.352478,605.681274 421.003235,605.428711 
z"/>
<path fill="#27ABBF" opacity="1.000000" stroke="none" 
	d="
M428.165833,609.161194 
	C428.536621,609.142700 429.139557,609.317932 429.902100,609.765015 
	C429.507111,609.809570 428.952545,609.582214 428.165833,609.161194 
z"/>
<path fill="#27ABBF" opacity="1.000000" stroke="none" 
	d="
M424.314362,607.174194 
	C424.627014,607.195496 425.156647,607.386169 425.864441,607.797913 
	C425.538879,607.793762 425.035126,607.568604 424.314362,607.174194 
z"/>
<path fill="#27ABBF" opacity="1.000000" stroke="none" 
	d="
M422.961517,606.327515 
	C423.101776,606.258484 423.391602,606.400391 423.822266,606.760742 
	C423.681458,606.825684 423.397461,606.678772 422.961517,606.327515 
z"/>
<path fill="#27ABBF" opacity="1.000000" stroke="none" 
	d="
M654.862915,378.790649 
	C654.735718,378.762146 654.494263,378.473572 654.152527,377.907257 
	C654.284424,377.929840 654.516479,378.230194 654.862915,378.790649 
z"/>
<path fill="#FEFEFE" opacity="1.000000" stroke="none" 
	d="
M356.577118,460.044312 
	C356.876740,451.824951 357.301056,444.076996 357.702240,435.830444 
	C360.621368,417.915619 365.477631,401.125031 374.032471,385.556458 
	C375.944275,382.077179 377.978485,378.665192 380.088776,374.829102 
	C390.046722,360.899475 401.019623,348.431671 414.391235,338.260712 
	C432.587708,324.419769 452.981567,315.413147 475.747131,310.711060 
	C476.306915,310.497650 476.488556,310.447357 476.858276,310.186035 
	C477.046356,309.974976 477.002777,309.965210 476.992249,309.984192 
	C482.000122,310.492371 486.874176,309.147278 491.811554,308.701111 
	C500.968170,307.873749 510.052948,308.498932 519.630493,309.015747 
	C534.910950,311.303741 549.295593,315.151459 563.488647,321.045593 
	C570.445801,324.791931 577.037292,328.489044 583.933228,332.284393 
	C592.019287,338.772125 600.274536,344.603363 607.579102,352.039307 
	C616.845459,362.266449 625.137451,372.861481 631.941040,384.992188 
	C639.492554,400.240356 645.031372,415.804565 647.941650,432.644287 
	C649.274048,445.583008 649.962952,458.179352 648.509766,471.289185 
	C646.541321,486.859131 642.515991,501.362030 636.348511,515.633606 
	C628.466492,531.331970 619.183411,545.650879 606.886414,557.884827 
	C588.926941,575.752014 567.848083,588.291077 543.265869,595.597412 
	C529.436829,598.941956 515.759521,601.292725 501.288086,601.272949 
	C490.068237,600.700623 479.403290,599.456482 468.465485,597.195740 
	C457.870178,593.849548 447.590546,590.762817 437.993256,585.800415 
	C432.256592,582.834290 426.671204,579.638489 420.930298,576.123291 
	C405.764435,565.240112 392.602905,552.712158 381.904968,537.236206 
	C375.227264,526.529541 369.393005,515.761719 364.942688,503.854828 
	C360.551971,489.464447 357.373383,475.224060 356.577118,460.044312 
z"/>
<path fill="#2071B1" opacity="1.000000" stroke="none" 
	d="
M665.532715,506.541016 
	C665.475464,506.576630 665.590027,506.505371 665.532715,506.541016 
z"/>
<path fill="#FFFFFF" opacity="1.000000" stroke="none" 
	d="
M350.904602,377.895782 
	C351.054199,377.592773 351.366180,377.454254 351.678131,377.315765 
	C351.703888,377.550903 351.729645,377.786072 351.576691,378.202026 
	C351.397980,378.382843 351.066956,378.060272 350.904602,377.895782 
z"/>
<path fill="#FBCD19" opacity="1.000000" stroke="none" 
	d="
M476.870178,310.029236 
	C476.967682,310.251587 476.788177,310.421967 476.316589,310.516968 
	C476.300385,310.375336 476.489960,310.220520 476.870178,310.029236 
z"/>
<path fill="#F8F8F8" opacity="1.000000" stroke="none" 
	d="
M667.488098,690.864136 
	C677.040710,692.934692 680.893005,697.692749 680.952637,707.032776 
	C681.013611,716.584839 676.951233,722.049927 668.239197,724.130737 
	C667.753784,724.246704 667.263000,724.340393 666.773621,724.439209 
	C652.927979,727.235229 651.978516,726.482178 651.978821,712.704529 
	C651.978943,706.544617 652.082825,700.382141 651.933960,694.225891 
	C651.867615,691.483948 652.659485,690.226501 655.588562,690.427002 
	C659.398865,690.687866 663.227722,690.676819 667.488098,690.864136 
z"/>
<path fill="#F8F8F8" opacity="1.000000" stroke="none" 
	d="
M765.413086,690.462830 
	C767.150024,690.701416 768.482971,690.830017 769.749878,691.190491 
	C772.923218,692.093140 774.839722,694.063782 775.075317,697.534058 
	C775.321716,701.163208 773.789856,703.620178 770.469116,704.925781 
	C765.507751,706.876343 760.305420,705.825562 755.203247,705.993286 
	C754.766357,706.007629 754.217285,705.784668 753.894470,705.484558 
	C752.984863,704.639343 753.146606,691.312683 754.170044,690.981934 
	C757.690552,689.843994 761.372314,690.691040 765.413086,690.462830 
z"/>
<path fill="#F8F8F8" opacity="1.000000" stroke="none" 
	d="
M339.318512,697.668091 
	C340.812683,701.241333 342.097046,704.492859 343.514923,707.685059 
	C344.441254,709.770630 344.127563,710.779053 341.616913,710.719788 
	C337.957703,710.633301 334.294769,710.676697 330.633759,710.706543 
	C328.771332,710.721741 327.693848,710.346252 328.656647,708.120117 
	C330.703705,703.386902 332.627686,698.600586 334.634277,693.849548 
	C334.940796,693.123840 335.096130,692.215393 336.454529,691.901428 
	C337.965820,693.274841 338.223236,695.496094 339.318512,697.668091 
z"/>
<path fill="#F8F8F8" opacity="1.000000" stroke="none" 
	d="
M232.522614,706.458496 
	C234.704468,701.272888 236.727448,696.430420 239.322403,690.218689 
	C242.231308,697.136719 244.535217,702.601624 246.825531,708.072144 
	C247.448700,709.560547 247.401855,710.689819 245.337570,710.685730 
	C241.344864,710.677795 237.342911,710.861145 233.362076,710.645813 
	C229.635345,710.444153 232.264542,708.209717 232.522614,706.458496 
z"/>
<path fill="#F5A910" opacity="1.000000" stroke="none" 
	d="
M464.055939,390.165039 
	C476.206390,383.166656 488.064606,376.392395 499.829010,369.458893 
	C502.121399,368.107849 503.873993,368.054413 506.207703,369.414795 
	C529.228943,382.834473 552.298279,396.172119 575.413574,409.429077 
	C577.763794,410.776978 578.564514,412.353577 578.556152,415.002594 
	C578.472351,441.491272 578.461243,467.980438 578.567078,494.468933 
	C578.578796,497.407501 577.443054,498.918640 575.001343,500.319702 
	C552.032837,513.499390 529.112122,526.762756 506.238831,540.106934 
	C503.919647,541.459900 502.186035,541.455261 499.868713,540.107910 
	C476.975250,526.796875 454.041382,513.554565 431.041107,500.429291 
	C428.366241,498.902863 427.384155,497.188324 427.397186,494.125793 
	C427.509277,467.803955 427.504150,441.481293 427.400604,415.159363 
	C427.389282,412.290863 428.280945,410.645752 430.799072,409.233856 
	C441.838318,403.044189 452.764008,396.652100 464.055939,390.165039 
z"/>
<path fill="#FFFDFB" opacity="1.000000" stroke="none" 
	d="
M543.488281,509.512146 
	C530.788452,516.878967 518.371033,524.003418 506.043030,531.279236 
	C503.926971,532.528076 502.390137,532.636841 500.194366,531.351318 
	C479.795868,519.408691 459.339966,507.563232 438.833893,495.806183 
	C436.344910,494.379181 435.423828,492.741943 435.437073,489.873444 
	C435.545410,466.395264 435.540070,442.916168 435.442749,419.437897 
	C435.431000,416.601746 436.285339,414.913086 438.809021,413.476440 
	C459.062775,401.946655 479.261749,390.319733 499.408966,378.604828 
	C501.999878,377.098297 503.959747,376.970123 506.652496,378.542328 
	C526.779236,390.293793 546.985962,401.909607 567.243591,413.434265 
	C569.906860,414.949432 570.903931,416.677185 570.888123,419.744751 
	C570.767944,443.056305 570.759521,466.369080 570.897095,489.680450 
	C570.915466,492.796967 569.831848,494.462006 567.196838,495.913757 
	C559.325378,500.250610 551.589661,504.833832 543.488281,509.512146 
z"/>
<path fill="#F5A910" opacity="1.000000" stroke="none" 
	d="
M450.287842,450.785156 
	C450.686340,448.642487 452.226196,448.166626 453.510986,447.466370 
	C463.887360,441.811218 474.333801,436.281372 484.631226,430.486481 
	C488.083740,428.543610 488.415833,429.439819 488.826447,432.990295 
	C489.608124,439.749023 487.370728,443.662567 480.799438,446.013336 
	C474.732605,448.183594 469.088104,451.534363 463.222687,454.382080 
	C463.778931,456.835114 465.939880,456.896606 467.412170,457.675262 
	C471.972076,460.086853 476.626160,462.322235 481.265045,464.582214 
	C489.147308,468.422241 489.889832,469.948425 488.727997,478.818298 
	C488.432953,481.070953 487.675079,481.317871 485.880157,480.331787 
	C474.646454,474.160400 463.408661,467.996368 452.150238,461.870361 
	C450.610474,461.032501 450.160767,459.832916 450.220215,458.186035 
	C450.304230,455.857880 450.247894,453.524689 450.287842,450.785156 
z"/>
<path fill="#F5A910" opacity="1.000000" stroke="none" 
	d="
M517.237427,437.693176 
	C517.236511,428.509216 517.253357,428.478302 525.012268,432.706848 
	C534.227112,437.728882 543.426758,442.779480 552.597900,447.880615 
	C557.113220,450.392120 557.194458,459.888580 552.703674,462.386597 
	C542.222534,468.216858 531.668396,473.916260 521.195068,479.760406 
	C518.422791,481.307312 517.541138,481.292053 517.086304,477.570862 
	C516.231689,470.578430 518.452454,466.409180 525.290955,464.049835 
	C530.448486,462.270477 535.194092,459.308533 540.150269,456.929779 
	C542.907532,455.606415 542.947266,454.445801 540.157288,453.112823 
	C533.693909,450.024872 527.307617,446.769775 520.784485,443.815582 
	C518.145996,442.620697 516.700378,441.102539 517.237427,437.693176 
z"/>
<path fill="#F5A910" opacity="1.000000" stroke="none" 
	d="
M505.801880,461.003967 
	C504.069946,470.077698 502.128479,478.688171 500.853119,487.396149 
	C500.133789,492.307739 496.827118,491.114716 494.180084,490.862946 
	C490.582092,490.520691 492.691254,487.769440 492.977844,486.226166 
	C496.924713,464.973206 500.996094,443.743378 505.050995,422.510559 
	C505.796814,418.605072 508.255981,417.247986 512.101929,418.338745 
	C514.408813,418.993042 513.609924,420.502747 513.340332,421.902893 
	C510.857880,434.797180 508.362610,447.688965 505.801880,461.003967 
z"/>
</svg>