<?xml version="1.0" standalone="no"?>
<!DOCTYPE svg PUBLIC "-//W3C//DTD SVG 20010904//EN"
 "http://www.w3.org/TR/2001/REC-SVG-20010904/DTD/svg10.dtd">
<svg version="1.0" xmlns="http://www.w3.org/2000/svg"
 width="1000.000000pt" height="1000.000000pt" viewBox="0 0 1000.000000 1000.000000"
 preserveAspectRatio="xMidYMid meet">
<metadata>
Created by potrace 1.16, written by Peter Selinger 2001-2019
</metadata>
<g transform="translate(0.000000,1000.000000) scale(0.100000,-0.100000)"
fill="#000000" stroke="none">
<path d="M5309 7012 l-111 -87 43 -8 c111 -22 242 -57 313 -86 l79 -32 94 62
c52 34 96 66 99 70 10 16 -169 95 -323 142 l-82 25 -112 -86z"/>
<path d="M6155 6564 c-38 -30 -73 -59 -78 -63 -4 -4 20 -38 53 -77 34 -38 89
-113 123 -166 34 -54 66 -96 71 -95 19 6 155 133 155 145 2 32 -215 312 -242
312 -7 0 -43 -25 -82 -56z"/>
<path d="M3455 5569 c-55 -43 -107 -87 -115 -97 -21 -25 -16 -192 6 -192 8 0
56 28 108 62 l93 63 6 120 c2 66 4 120 3 121 0 1 -46 -34 -101 -77z"/>
<path d="M6594 5389 l-112 -99 -17 -95 c-14 -78 -66 -248 -100 -329 -5 -11 63
42 151 117 87 76 160 133 162 127 2 -5 -6 -43 -17 -85 -24 -85 -25 -93 -12
-79 13 13 47 153 61 249 15 104 18 287 5 291 -5 1 -60 -42 -121 -97z"/>
<path d="M6552 4727 c-248 -519 -731 -874 -1297 -952 -64 -9 -125 -15 -136
-13 -16 2 14 32 129 131 180 153 186 160 140 146 -58 -16 -200 -38 -299 -45
l-96 -6 -119 -104 c-65 -57 -120 -108 -122 -113 -8 -23 295 -38 443 -22 519
56 962 322 1250 751 63 94 169 304 163 322 -3 7 -27 -36 -56 -95z"/>
<path d="M3707 4569 l-88 -71 17 -26 c37 -58 117 -151 198 -232 47 -46 86 -87
86 -90 0 -3 -70 -68 -155 -144 -150 -133 -184 -176 -137 -176 11 0 90 64 177
142 l158 141 30 -16 29 -17 84 77 c46 42 84 79 84 83 0 3 -36 35 -81 70 -90
71 -220 205 -271 280 -18 27 -35 50 -38 50 -3 0 -45 -32 -93 -71z"/>
<path d="M5010 3150 c-80 -19 -119 -122 -66 -175 22 -22 45 -31 143 -55 76
-19 106 -88 59 -135 -31 -31 -82 -40 -143 -25 -71 17 -87 17 -91 -1 -7 -36
124 -61 203 -39 64 18 95 57 95 122 0 41 -5 54 -28 78 -16 16 -49 33 -73 39
-95 23 -123 36 -138 63 -14 25 -14 29 5 55 28 37 69 46 135 29 57 -15 69 -13
69 9 0 25 -112 48 -170 35z"/>
<path d="M5560 3151 c-71 -15 -130 -61 -165 -130 -13 -25 -16 -52 -13 -100 5
-88 31 -138 93 -176 44 -27 56 -30 129 -30 57 1 91 6 114 19 37 19 38 43 1 38
-111 -14 -175 -12 -209 6 -121 66 -113 254 13 319 42 21 124 20 171 -2 32 -15
39 -16 47 -4 14 23 11 27 -33 43 -57 20 -105 25 -148 17z"/>
<path d="M8132 3149 c-109 -21 -182 -112 -182 -226 0 -29 3 -33 25 -33 23 0
25 4 25 46 0 118 104 199 222 173 92 -21 143 -92 136 -191 -5 -65 -25 -99 -78
-135 -65 -45 -167 -39 -220 12 -27 26 -73 25 -63 -1 9 -24 94 -73 139 -80 173
-26 304 110 264 275 -27 114 -145 185 -268 160z"/>
<path d="M1620 2935 c0 -208 1 -215 20 -215 19 0 20 8 22 182 l3 183 144 -183
c127 -159 148 -182 173 -182 l28 0 -2 213 c-3 204 -4 212 -23 212 -19 0 -20
-6 -19 -177 1 -98 -2 -178 -6 -178 -4 0 -72 81 -151 179 -108 135 -150 180
-166 180 l-23 1 0 -215z"/>
<path d="M2346 3118 c-8 -18 -48 -111 -90 -207 -42 -96 -76 -178 -76 -183 0
-5 9 -8 21 -6 15 2 28 21 48 68 l28 65 105 3 105 3 31 -71 c24 -55 35 -70 52
-70 27 0 30 -12 -73 230 -77 179 -86 195 -111 198 -22 3 -29 -2 -40 -30z m83
-116 c21 -50 36 -93 33 -96 -6 -7 -162 -8 -162 -1 0 2 9 26 19 52 39 97 62
146 66 141 3 -3 23 -46 44 -96z"/>
<path d="M2720 3131 c0 -18 8 -20 63 -23 l62 -3 3 -192 c2 -184 3 -193 22
-193 19 0 20 9 22 193 l3 192 68 3 c58 2 68 6 65 20 -3 15 -21 17 -156 20
-146 2 -152 2 -152 -17z"/>
<path d="M3326 3141 c-4 -5 -47 -102 -95 -215 -85 -195 -88 -206 -67 -206 19
0 29 13 54 70 l31 70 104 0 105 0 28 -70 c24 -57 33 -70 52 -70 12 0 22 2 22
4 0 2 -40 98 -89 213 -80 185 -92 208 -114 211 -14 2 -28 -1 -31 -7z m71 -136
c18 -44 33 -85 33 -92 0 -10 -22 -13 -80 -13 -44 0 -80 3 -80 8 -1 20 74 182
83 179 6 -2 25 -39 44 -82z"/>
<path d="M3730 2936 l0 -216 131 0 c119 0 130 2 127 18 -3 15 -17 17 -105 20
l-103 3 -2 192 c-3 191 -3 192 -25 195 l-23 3 0 -215z"/>
<path d="M4467 3143 c-4 -3 -7 -100 -7 -215 l0 -208 140 0 c133 0 140 1 140
20 0 19 -7 20 -115 20 l-115 0 0 80 0 80 100 0 c93 0 100 1 100 20 0 19 -7 20
-100 20 l-101 0 3 73 3 72 108 3 c99 2 107 4 107 22 0 19 -7 20 -128 20 -71 0
-132 -3 -135 -7z"/>
<path d="M5922 2988 c4 -190 13 -217 88 -256 37 -19 56 -23 104 -19 62 6 95
23 130 71 19 25 21 44 24 197 3 165 3 169 -17 169 -20 0 -21 -5 -21 -142 0
-120 -4 -150 -20 -186 -30 -65 -104 -90 -174 -57 -55 26 -61 45 -66 220 -5
158 -5 160 -28 163 l-24 4 4 -164z"/>
<path d="M6467 3143 c-4 -3 -7 -101 -7 -216 l0 -209 118 4 c96 3 125 8 158 25
82 43 122 122 110 216 -10 93 -73 159 -165 177 -60 11 -204 14 -214 3z m254
-59 c58 -34 74 -67 74 -149 0 -59 -4 -79 -21 -102 -37 -50 -79 -67 -176 -71
l-88 -4 0 169 c0 93 3 173 8 177 14 15 170 -1 203 -20z"/>
<path d="M7027 3143 c-4 -3 -7 -100 -7 -215 l0 -208 140 0 c133 0 140 1 140
20 0 19 -7 20 -115 20 l-115 0 0 80 0 80 100 0 c93 0 100 1 100 20 0 19 -7 20
-100 20 l-101 0 3 73 3 72 108 3 c99 2 107 4 107 22 0 19 -7 20 -128 20 -71 0
-132 -3 -135 -7z"/>
<path d="M7480 2936 c0 -208 1 -216 20 -216 18 0 20 8 22 93 l3 92 57 3 57 3
62 -96 c49 -77 66 -95 85 -95 13 0 24 3 24 8 -1 4 -27 47 -60 97 l-59 90 34
18 c59 30 79 91 50 147 -25 49 -67 64 -187 68 l-108 4 0 -216z m202 164 c42
-12 58 -34 58 -78 0 -50 -30 -67 -131 -70 l-89 -4 0 74 c0 41 3 78 7 81 10 11
114 8 155 -3z"/>
</g>
</svg>
