<?xml version="1.0" encoding="UTF-8"?>
<!DOCTYPE svg PUBLIC "-//W3C//DTD SVG 1.1//EN" "http://www.w3.org/Graphics/SVG/1.1/DTD/svg11.dtd">
<svg xmlns="http://www.w3.org/2000/svg" version="1.1" width="1000px" height="1000px" style="shape-rendering:geometricPrecision; text-rendering:geometricPrecision; image-rendering:optimizeQuality; fill-rule:evenodd; clip-rule:evenodd" xmlns:xlink="http://www.w3.org/1999/xlink">
<g><path style="opacity:1" fill="#fefefe" d="M -0.5,-0.5 C 332.833,-0.5 666.167,-0.5 999.5,-0.5C 999.5,332.833 999.5,666.167 999.5,999.5C 666.167,999.5 332.833,999.5 -0.5,999.5C -0.5,666.167 -0.5,332.833 -0.5,-0.5 Z"/></g>
<g><path style="opacity:1" fill="#f461ac" d="M 508.5,285.5 C 496.622,293.266 484.956,301.266 473.5,309.5C 433.548,317.808 402.215,338.808 379.5,372.5C 367.025,380.24 354.691,388.24 342.5,396.5C 344.575,388.442 347.908,380.942 352.5,374C 349.394,375.065 346.727,377.065 344.5,380C 342.559,380.743 340.726,380.576 339,379.5C 338.333,378.5 338.333,377.5 339,376.5C 344.542,371.289 350.375,366.456 356.5,362C 366.131,350.701 376.131,339.701 386.5,329C 421.327,297.965 461.994,283.465 508.5,285.5 Z"/></g>
<g><path style="opacity:1" fill="#fbcb1d" d="M 541.5,290.5 C 533.546,295.788 525.88,301.455 518.5,307.5C 516.167,307.5 513.833,307.5 511.5,307.5C 503.677,306.344 495.677,306.177 487.5,307C 483.535,307.108 479.868,307.941 476.5,309.5C 475.5,309.5 474.5,309.5 473.5,309.5C 484.956,301.266 496.622,293.266 508.5,285.5C 517.85,286.114 527.183,286.614 536.5,287C 542.051,282.607 547.718,278.44 553.5,274.5C 556.246,275.096 557.08,276.763 556,279.5C 551.528,283.827 546.695,287.493 541.5,290.5 Z"/></g>
<g><path style="opacity:1" fill="#236eaf" d="M 541.5,290.5 C 555.945,293.316 569.612,298.316 582.5,305.5C 576.133,310.523 569.466,315.19 562.5,319.5C 548.35,313.298 533.684,309.298 518.5,307.5C 525.88,301.455 533.546,295.788 541.5,290.5 Z"/></g>
<g><path style="opacity:1" fill="#f263ae" d="M 600.5,317.5 C 594.549,321.45 588.882,325.783 583.5,330.5C 576.273,327.274 569.273,323.607 562.5,319.5C 569.466,315.19 576.133,310.523 582.5,305.5C 585.618,307.563 588.952,309.396 592.5,311C 593.833,311.667 595.167,311.667 596.5,311C 604.167,304.667 611.833,298.333 619.5,292C 621.365,290.699 623.365,290.365 625.5,291C 626.517,292.049 626.684,293.216 626,294.5C 618.121,301.38 609.955,307.88 601.5,314C 600.663,315.011 600.33,316.178 600.5,317.5 Z"/></g>
<g><path style="opacity:1" fill="#fff2c5" d="M 511.5,307.5 C 499.794,307.636 488.127,308.303 476.5,309.5C 479.868,307.941 483.535,307.108 487.5,307C 495.677,306.177 503.677,306.344 511.5,307.5 Z"/></g>
<g><path style="opacity:1" fill="#fefefe" d="M 511.5,307.5 C 513.833,307.5 516.167,307.5 518.5,307.5C 533.684,309.298 548.35,313.298 562.5,319.5C 569.273,323.607 576.273,327.274 583.5,330.5C 590.867,337.375 598.534,344.042 606.5,350.5C 616.017,360.673 624.35,371.673 631.5,383.5C 632.958,387.866 634.624,392.2 636.5,396.5C 637.256,400.767 638.589,404.767 640.5,408.5C 643.141,415.728 645.474,423.061 647.5,430.5C 647.5,433.833 647.5,437.167 647.5,440.5C 647.28,450.692 647.28,460.692 647.5,470.5C 645.812,480.252 643.646,489.919 641,499.5C 638.886,504.094 637.052,508.761 635.5,513.5C 615.098,554.235 583.098,581.235 539.5,594.5C 526.152,597.261 512.818,599.261 499.5,600.5C 499.167,600.5 498.833,600.5 498.5,600.5C 488.441,598.967 478.274,597.3 468,595.5C 467.098,595.743 466.265,596.077 465.5,596.5C 463.879,594.883 461.879,593.716 459.5,593C 454.11,591.537 448.777,589.87 443.5,588C 434.825,583.998 426.492,579.498 418.5,574.5C 403.793,563.46 391.126,550.46 380.5,535.5C 373.746,524.659 368.079,513.326 363.5,501.5C 363.072,498.215 362.072,495.215 360.5,492.5C 359.529,486.629 358.196,480.963 356.5,475.5C 356.5,474.833 356.5,474.167 356.5,473.5C 356.167,468.167 355.833,462.833 355.5,457.5C 355.816,449.643 355.816,441.976 355.5,434.5C 359.241,412.217 367.241,391.551 379.5,372.5C 402.215,338.808 433.548,317.808 473.5,309.5C 474.5,309.5 475.5,309.5 476.5,309.5C 488.127,308.303 499.794,307.636 511.5,307.5 Z"/></g>
<g><path style="opacity:1" fill="#2dabbe" d="M 600.5,317.5 C 609.046,322.708 616.713,329.041 623.5,336.5C 617.833,341.167 612.167,345.833 606.5,350.5C 598.534,344.042 590.867,337.375 583.5,330.5C 588.882,325.783 594.549,321.45 600.5,317.5 Z"/></g>
<g><path style="opacity:1" fill="#236fb0" d="M 623.5,336.5 C 633.33,345.996 641.663,356.663 648.5,368.5C 642.537,373.128 636.87,378.128 631.5,383.5C 624.35,371.673 616.017,360.673 606.5,350.5C 612.167,345.833 617.833,341.167 623.5,336.5 Z"/></g>
<g><path style="opacity:1" fill="#f5aa1c" d="M 499.5,366.5 C 500.873,366.343 502.207,366.51 503.5,367C 527.667,381.167 551.833,395.333 576,409.5C 576.833,438.839 576.667,468.172 575.5,497.5C 551.067,511.938 526.4,525.938 501.5,539.5C 475.964,525.815 450.797,511.482 426,496.5C 425.333,467.5 425.333,438.5 426,409.5C 450.809,395.519 475.309,381.185 499.5,366.5 Z"/></g>
<g><path style="opacity:1" fill="#f161ac" d="M 648.5,368.5 C 651.203,374.629 654.203,380.629 657.5,386.5C 657.46,389.425 658.293,392.091 660,394.5C 660.69,395.738 661.19,395.738 661.5,394.5C 666.274,390.902 670.94,387.069 675.5,383C 679,382.5 680.5,384 680,387.5C 674.638,392.032 669.472,396.699 664.5,401.5C 663.876,401.917 663.543,402.584 663.5,403.5C 664.922,407.034 665.589,410.7 665.5,414.5C 659.5,419.833 653.5,425.167 647.5,430.5C 645.474,423.061 643.141,415.728 640.5,408.5C 640.139,404.085 638.806,400.085 636.5,396.5C 634.624,392.2 632.958,387.866 631.5,383.5C 636.87,378.128 642.537,373.128 648.5,368.5 Z"/></g>
<g><path style="opacity:1" fill="#fccc1e" d="M 379.5,372.5 C 367.241,391.551 359.241,412.217 355.5,434.5C 354.833,434.5 354.5,434.833 354.5,435.5C 346.655,440.923 338.989,446.589 331.5,452.5C 331.106,432.859 334.773,414.192 342.5,396.5C 354.691,388.24 367.025,380.24 379.5,372.5 Z"/></g>
<g><path style="opacity:1" fill="#fffdfb" d="M 499.5,375.5 C 500.873,375.343 502.207,375.51 503.5,376C 525.167,388.5 546.833,401 568.5,413.5C 569.833,439.833 569.833,466.167 568.5,492.5C 546.003,505.248 523.669,518.248 501.5,531.5C 479.003,518.752 456.669,505.752 434.5,492.5C 433.167,466.167 433.167,439.833 434.5,413.5C 456.394,401.059 478.061,388.392 499.5,375.5 Z"/></g>
<g><path style="opacity:1" fill="#a380ba" d="M 657.5,386.5 C 659.343,388.853 660.677,391.52 661.5,394.5C 661.19,395.738 660.69,395.738 660,394.5C 658.293,392.091 657.46,389.425 657.5,386.5 Z"/></g>
<g><path style="opacity:1" fill="#fccbe4" d="M 636.5,396.5 C 638.806,400.085 640.139,404.085 640.5,408.5C 638.589,404.767 637.256,400.767 636.5,396.5 Z"/></g>
<g><path style="opacity:1" fill="#f8cb1c" d="M 665.5,414.5 C 668.571,422.591 670.238,431.091 670.5,440C 670.833,441.167 671.167,442.333 671.5,443.5C 672.107,443.376 672.44,443.043 672.5,442.5C 676.188,439.649 680.021,436.982 684,434.5C 685.885,434.862 686.719,436.029 686.5,438C 686.167,438.833 685.833,439.667 685.5,440.5C 680.829,443.844 676.495,447.51 672.5,451.5C 671.778,451.082 671.278,450.416 671,449.5C 664.295,455.709 657.462,461.709 650.5,467.5C 648.844,458.713 647.844,449.713 647.5,440.5C 647.5,437.167 647.5,433.833 647.5,430.5C 653.5,425.167 659.5,419.833 665.5,414.5 Z"/></g>
<g><path style="opacity:1" fill="#fad280" d="M 511.5,421.5 C 511.5,420.167 511.5,418.833 511.5,417.5C 509.167,417.5 506.833,417.5 504.5,417.5C 504.737,418.791 504.404,419.791 503.5,420.5C 503.5,419.167 503.5,417.833 503.5,416.5C 506.5,416.5 509.5,416.5 512.5,416.5C 512.784,418.415 512.451,420.081 511.5,421.5 Z"/></g>
<g><path style="opacity:1" fill="#f6ad27" d="M 511.5,421.5 C 507.664,443.512 503.497,465.512 499,487.5C 496.544,489.321 493.711,489.988 490.5,489.5C 494.917,466.482 499.25,443.482 503.5,420.5C 504.404,419.791 504.737,418.791 504.5,417.5C 506.833,417.5 509.167,417.5 511.5,417.5C 511.5,418.833 511.5,420.167 511.5,421.5 Z"/></g>
<g><path style="opacity:1" fill="#6896b8" d="M 664.5,401.5 C 668.565,414.886 671.231,428.552 672.5,442.5C 672.44,443.043 672.107,443.376 671.5,443.5C 671.167,442.333 670.833,441.167 670.5,440C 670.238,431.091 668.571,422.591 665.5,414.5C 665.589,410.7 664.922,407.034 663.5,403.5C 663.543,402.584 663.876,401.917 664.5,401.5 Z"/></g>
<g><path style="opacity:1" fill="#f5a91b" d="M 484.5,427.5 C 485.5,427.5 486.5,427.5 487.5,427.5C 487.826,431.884 487.492,436.217 486.5,440.5C 477.944,444.61 469.61,448.943 461.5,453.5C 469.676,458.088 478.009,462.422 486.5,466.5C 487.492,470.783 487.826,475.116 487.5,479.5C 474.77,473.306 462.103,466.806 449.5,460C 448.167,455.667 448.167,451.333 449.5,447C 461.552,440.979 473.218,434.479 484.5,427.5 Z"/></g>
<g><path style="opacity:1" fill="#f6aa1c" d="M 515.5,427.5 C 528.386,433.611 541.053,440.278 553.5,447.5C 554.833,451.5 554.833,455.5 553.5,459.5C 541.326,466.421 528.993,473.088 516.5,479.5C 515.339,475.205 515.172,470.871 516,466.5C 524.246,462.294 532.413,457.961 540.5,453.5C 532.413,449.039 524.246,444.706 516,440.5C 515.501,436.179 515.334,431.846 515.5,427.5 Z"/></g>
<g><path style="opacity:1" fill="#266eae" d="M 354.5,435.5 C 354.592,442.585 354.592,449.918 354.5,457.5C 354.5,457.833 354.5,458.167 354.5,458.5C 347.291,462.932 340.291,467.598 333.5,472.5C 331.961,466.063 331.294,459.396 331.5,452.5C 338.989,446.589 346.655,440.923 354.5,435.5 Z"/></g>
<g><path style="opacity:1" fill="#75a5cd" d="M 354.5,435.5 C 354.5,434.833 354.833,434.5 355.5,434.5C 355.816,441.976 355.816,449.643 355.5,457.5C 355.167,457.5 354.833,457.5 354.5,457.5C 354.592,449.918 354.592,442.585 354.5,435.5 Z"/></g>
<g><path style="opacity:1" fill="#f4dc76" d="M 647.5,440.5 C 647.844,449.713 648.844,458.713 650.5,467.5C 649.833,468.833 648.833,469.833 647.5,470.5C 647.28,460.692 647.28,450.692 647.5,440.5 Z"/></g>
<g><path style="opacity:1" fill="#2270b0" d="M 672.5,451.5 C 673.276,468.851 671.276,485.851 666.5,502.5C 665.613,504.735 664.613,505.235 663.5,504C 665.738,498.586 666.738,493.086 666.5,487.5C 656.29,496.421 645.956,505.087 635.5,513.5C 637.052,508.761 638.886,504.094 641,499.5C 643.646,489.919 645.812,480.252 647.5,470.5C 648.833,469.833 649.833,468.833 650.5,467.5C 657.462,461.709 664.295,455.709 671,449.5C 671.278,450.416 671.778,451.082 672.5,451.5 Z"/></g>
<g><path style="opacity:1" fill="#f261ad" d="M 354.5,458.5 C 354.444,463.731 355.111,468.731 356.5,473.5C 356.5,474.167 356.5,474.833 356.5,475.5C 356.734,481.545 358.067,487.212 360.5,492.5C 362.072,495.215 363.072,498.215 363.5,501.5C 356.985,506.259 350.652,511.259 344.5,516.5C 343.416,514.681 342.082,513.015 340.5,511.5C 337.744,514.427 334.578,516.76 331,518.5C 328.681,517.591 328.014,515.925 329,513.5C 332.439,510.209 335.939,507.042 339.5,504C 335.94,493.809 333.94,483.309 333.5,472.5C 340.291,467.598 347.291,462.932 354.5,458.5 Z"/></g>
<g><path style="opacity:1" fill="#f79bcb" d="M 354.5,457.5 C 354.833,457.5 355.167,457.5 355.5,457.5C 355.833,462.833 356.167,468.167 356.5,473.5C 355.111,468.731 354.444,463.731 354.5,458.5C 354.5,458.167 354.5,457.833 354.5,457.5 Z"/></g>
<g><path style="opacity:1" fill="#f9a1ce" d="M 356.5,475.5 C 358.196,480.963 359.529,486.629 360.5,492.5C 358.067,487.212 356.734,481.545 356.5,475.5 Z"/></g>
<g><path style="opacity:1" fill="#29abbe" d="M 666.5,502.5 C 671.627,498.545 676.627,494.378 681.5,490C 682.784,489.316 683.951,489.483 685,490.5C 685.667,492.167 685.667,493.833 685,495.5C 676.674,501.995 668.841,508.995 661.5,516.5C 659.926,516.937 658.759,517.937 658,519.5C 634.686,572.582 594.853,606.082 538.5,620C 528.739,622.103 519.072,622.936 509.5,622.5C 519.128,614.874 528.461,606.874 537.5,598.5C 538.962,597.542 540.295,596.376 541.5,595C 540.906,594.536 540.239,594.369 539.5,594.5C 583.098,581.235 615.098,554.235 635.5,513.5C 645.956,505.087 656.29,496.421 666.5,487.5C 666.738,493.086 665.738,498.586 663.5,504C 664.613,505.235 665.613,504.735 666.5,502.5 Z"/></g>
<g><path style="opacity:1" fill="#30acbf" d="M 363.5,501.5 C 368.079,513.326 373.746,524.659 380.5,535.5C 374.018,539.913 367.685,544.58 361.5,549.5C 359.523,547.186 357.523,544.853 355.5,542.5C 349.833,547.167 344.167,551.833 338.5,556.5C 336.054,555.573 335.221,553.906 336,551.5C 341.438,546.21 346.938,541.043 352.5,536C 349.114,529.737 346.447,523.237 344.5,516.5C 350.652,511.259 356.985,506.259 363.5,501.5 Z"/></g>
<g><path style="opacity:1" fill="#2470b1" d="M 380.5,535.5 C 391.126,550.46 403.793,563.46 418.5,574.5C 413.188,580.479 407.521,586.146 401.5,591.5C 399.537,590.316 397.537,589.483 395.5,589C 385.356,598.567 375.022,607.901 364.5,617C 361,617.5 359.5,616 360,612.5C 370.643,603.691 380.809,594.358 390.5,584.5C 383.483,577.317 376.65,569.984 370,562.5C 366.918,558.266 364.084,553.933 361.5,549.5C 367.685,544.58 374.018,539.913 380.5,535.5 Z"/></g>
<g><path style="opacity:1" fill="#f161ac" d="M 418.5,574.5 C 426.492,579.498 434.825,583.998 443.5,588C 448.777,589.87 454.11,591.537 459.5,593C 461.879,593.716 463.879,594.883 465.5,596.5C 459.157,602.842 452.491,608.842 445.5,614.5C 439.914,612.204 434.248,610.204 428.5,608.5C 423.155,605.666 417.822,602.833 412.5,600C 408.403,597.63 404.736,594.797 401.5,591.5C 407.521,586.146 413.188,580.479 418.5,574.5 Z"/></g>
<g><path style="opacity:1" fill="#5490c1" d="M 539.5,594.5 C 540.239,594.369 540.906,594.536 541.5,595C 540.295,596.376 538.962,597.542 537.5,598.5C 537.53,597.503 537.03,596.836 536,596.5C 524.001,599.236 511.834,600.57 499.5,600.5C 512.818,599.261 526.152,597.261 539.5,594.5 Z"/></g>
<g><path style="opacity:1" fill="#f9cb21" d="M 498.5,600.5 C 490.525,607.471 482.525,614.471 474.5,621.5C 467.785,620.821 461.118,619.821 454.5,618.5C 448.861,622.97 443.361,627.636 438,632.5C 435.277,631.792 434.277,630.125 435,627.5C 438.867,623.298 443.033,619.465 447.5,616C 446.906,615.536 446.239,615.369 445.5,615.5C 445.5,615.167 445.5,614.833 445.5,614.5C 452.491,608.842 459.157,602.842 465.5,596.5C 466.265,596.077 467.098,595.743 468,595.5C 478.274,597.3 488.441,598.967 498.5,600.5 Z"/></g>
<g><path style="opacity:1" fill="#1e6eae" d="M 537.5,598.5 C 528.461,606.874 519.128,614.874 509.5,622.5C 508.711,622.783 508.044,623.283 507.5,624C 496.821,624.572 486.155,624.405 475.5,623.5C 474.833,623.5 474.167,623.5 473.5,623.5C 473.833,622.833 474.167,622.167 474.5,621.5C 482.525,614.471 490.525,607.471 498.5,600.5C 498.833,600.5 499.167,600.5 499.5,600.5C 511.834,600.57 524.001,599.236 536,596.5C 537.03,596.836 537.53,597.503 537.5,598.5 Z"/></g>
<g><path style="opacity:1" fill="#3680b8" d="M 661.5,516.5 C 635.059,579.087 588.059,615.254 520.5,625C 507.5,625.667 494.5,625.667 481.5,625C 479.292,624.809 477.292,624.309 475.5,623.5C 486.155,624.405 496.821,624.572 507.5,624C 508.044,623.283 508.711,622.783 509.5,622.5C 519.072,622.936 528.739,622.103 538.5,620C 594.853,606.082 634.686,572.582 658,519.5C 658.759,517.937 659.926,516.937 661.5,516.5 Z"/></g>
<g><path style="opacity:1" fill="#8392c3" d="M 428.5,608.5 C 434.248,610.204 439.914,612.204 445.5,614.5C 445.5,614.833 445.5,615.167 445.5,615.5C 439.434,613.961 433.767,611.628 428.5,608.5 Z"/></g>
<g><path style="opacity:1" fill="#6d9cbe" d="M 454.5,618.5 C 461.118,619.821 467.785,620.821 474.5,621.5C 474.167,622.167 473.833,622.833 473.5,623.5C 466.859,622.591 460.526,620.924 454.5,618.5 Z"/></g>
<g><path style="opacity:1" fill="#4b4b4b" d="M 301.5,688.5 C 301.5,687.5 301.5,686.5 301.5,685.5C 291.5,685.5 281.5,685.5 271.5,685.5C 271.5,686.5 271.5,687.5 271.5,688.5C 270.566,687.432 270.232,686.099 270.5,684.5C 281.167,684.5 291.833,684.5 302.5,684.5C 302.768,686.099 302.434,687.432 301.5,688.5 Z"/></g>
<g><path style="opacity:1" fill="#121212" d="M 194.5,720.5 C 194.56,721.043 194.893,721.376 195.5,721.5C 196.499,709.518 196.832,697.518 196.5,685.5C 197.5,685.5 198.5,685.5 199.5,685.5C 199.5,699.5 199.5,713.5 199.5,727.5C 197.533,727.739 195.699,727.406 194,726.5C 185.682,715.023 176.849,704.023 167.5,693.5C 167.672,692.508 167.338,691.842 166.5,691.5C 166.44,690.957 166.107,690.624 165.5,690.5C 164.501,702.815 164.168,715.149 164.5,727.5C 163.5,727.5 162.5,727.5 161.5,727.5C 161.5,713.167 161.5,698.833 161.5,684.5C 163.288,684.215 164.955,684.548 166.5,685.5C 175.857,697.186 185.19,708.852 194.5,720.5 Z"/></g>
<g><path style="opacity:1" fill="#676767" d="M 199.5,727.5 C 199.5,713.5 199.5,699.5 199.5,685.5C 198.5,685.5 197.5,685.5 196.5,685.5C 196.832,697.518 196.499,709.518 195.5,721.5C 194.893,721.376 194.56,721.043 194.5,720.5C 195.495,708.678 195.828,696.678 195.5,684.5C 197.167,684.5 198.833,684.5 200.5,684.5C 200.829,699.01 200.496,713.343 199.5,727.5 Z"/></g>
<g><path style="opacity:1" fill="#1e1e1e" d="M 249.5,716.5 C 249.586,715.504 249.252,714.671 248.5,714C 241.144,713.169 233.811,713.335 226.5,714.5C 225.1,717.035 224.1,719.702 223.5,722.5C 223.384,726.275 221.384,727.942 217.5,727.5C 222.084,714.323 227.251,701.323 233,688.5C 234.601,684.743 237.268,683.743 241,685.5C 246.882,699.252 252.716,712.918 258.5,726.5C 256.955,727.452 255.288,727.785 253.5,727.5C 252.975,723.467 251.642,719.8 249.5,716.5 Z"/></g>
<g><path style="opacity:1" fill="#0d0d0d" d="M 301.5,688.5 C 297.167,688.5 292.833,688.5 288.5,688.5C 288.5,701.5 288.5,714.5 288.5,727.5C 287.167,727.5 285.833,727.5 284.5,727.5C 284.5,714.5 284.5,701.5 284.5,688.5C 280.167,688.5 275.833,688.5 271.5,688.5C 271.5,687.5 271.5,686.5 271.5,685.5C 281.5,685.5 291.5,685.5 301.5,685.5C 301.5,686.5 301.5,687.5 301.5,688.5 Z"/></g>
<g><path style="opacity:1" fill="#1d1d1d" d="M 331.5,684.5 C 333.792,684.244 335.959,684.577 338,685.5C 343.519,699.199 349.352,712.865 355.5,726.5C 353.994,727.747 352.494,727.747 351,726.5C 349.296,722.259 347.462,718.093 345.5,714C 338.174,713.5 330.841,713.334 323.5,713.5C 321.45,717.981 319.783,722.648 318.5,727.5C 317.167,727.5 315.833,727.5 314.5,727.5C 314.343,726.127 314.51,724.793 315,723.5C 320.489,710.519 325.989,697.519 331.5,684.5 Z"/></g>
<g><path style="opacity:1" fill="#000000" d="M 377.5,723.5 C 383.979,724.491 390.646,724.824 397.5,724.5C 397.5,725.5 397.5,726.5 397.5,727.5C 389.5,727.5 381.5,727.5 373.5,727.5C 373.5,713.5 373.5,699.5 373.5,685.5C 374.5,685.5 375.5,685.5 376.5,685.5C 376.171,698.344 376.505,711.011 377.5,723.5 Z"/></g>
<g><path style="opacity:1" fill="#5b5b5b" d="M 377.5,723.5 C 376.505,711.011 376.171,698.344 376.5,685.5C 375.5,685.5 374.5,685.5 373.5,685.5C 373.5,699.5 373.5,713.5 373.5,727.5C 372.504,713.343 372.171,699.01 372.5,684.5C 374.167,684.5 375.833,684.5 377.5,684.5C 377.5,697.5 377.5,710.5 377.5,723.5 Z"/></g>
<g><path style="opacity:1" fill="#6a6a6a" d="M 450.5,703.5 C 449.513,698.695 449.179,693.695 449.5,688.5C 456.833,688.5 464.167,688.5 471.5,688.5C 471.5,687.5 471.5,686.5 471.5,685.5C 463.167,685.5 454.833,685.5 446.5,685.5C 446.5,699.5 446.5,713.5 446.5,727.5C 445.504,713.343 445.171,699.01 445.5,684.5C 454.5,684.5 463.5,684.5 472.5,684.5C 472.5,686.167 472.5,687.833 472.5,689.5C 465.167,689.5 457.833,689.5 450.5,689.5C 450.5,694.167 450.5,698.833 450.5,703.5 Z"/></g>
<g><path style="opacity:1" fill="#080808" d="M 450.5,703.5 C 456.679,704.167 463.012,704.833 469.5,705.5C 463.012,706.167 456.679,706.833 450.5,707.5C 450.5,712.833 450.5,718.167 450.5,723.5C 457.648,724.492 464.981,724.825 472.5,724.5C 472.5,725.5 472.5,726.5 472.5,727.5C 463.833,727.5 455.167,727.5 446.5,727.5C 446.5,713.5 446.5,699.5 446.5,685.5C 454.833,685.5 463.167,685.5 471.5,685.5C 471.5,686.5 471.5,687.5 471.5,688.5C 464.167,688.5 456.833,688.5 449.5,688.5C 449.179,693.695 449.513,698.695 450.5,703.5 Z"/></g>
<g><path style="opacity:1" fill="#1a1a1a" d="M 498.5,684.5 C 504.998,684.082 511.332,684.748 517.5,686.5C 517.146,690.84 515.146,691.673 511.5,689C 507.5,688.333 503.5,688.333 499.5,689C 494.538,692.303 494.205,696.136 498.5,700.5C 503.746,702.304 509.079,703.804 514.5,705C 520.234,708.18 522.067,713.013 520,719.5C 516.401,726.136 510.734,729.136 503,728.5C 500.833,728.333 498.667,728.167 496.5,728C 494.842,726.337 492.842,725.504 490.5,725.5C 490.5,724.167 490.5,722.833 490.5,721.5C 494.973,722.996 499.639,723.996 504.5,724.5C 515.014,724.198 518.348,719.365 514.5,710C 509.372,707.717 504.038,706.051 498.5,705C 492.397,701.96 490.231,697.126 492,690.5C 493.914,688.144 496.081,686.144 498.5,684.5 Z"/></g>
<g><path style="opacity:1" fill="#181818" d="M 544.5,696.5 C 543.21,697.058 542.377,698.058 542,699.5C 541.833,701.5 541.667,703.5 541.5,705.5C 541.287,708.527 541.953,711.193 543.5,713.5C 544.921,718.09 547.921,721.256 552.5,723C 558.249,723.785 563.916,723.618 569.5,722.5C 570.833,722.5 572.167,722.5 573.5,722.5C 573.5,723.5 573.5,724.5 573.5,725.5C 564.406,729.611 555.406,729.444 546.5,725C 537.263,716.407 535.097,706.24 540,694.5C 546.911,685.195 556.078,682.028 567.5,685C 571.249,685.679 573.249,687.846 573.5,691.5C 570.984,691.245 568.65,690.411 566.5,689C 559.682,687.598 553.348,688.598 547.5,692C 545.859,693.129 544.859,694.629 544.5,696.5 Z"/></g>
<g><path style="opacity:1" fill="#535353" d="M 596.5,713.5 C 595.506,704.348 595.173,695.015 595.5,685.5C 594.5,685.5 593.5,685.5 592.5,685.5C 592.5,695.167 592.5,704.833 592.5,714.5C 591.506,704.681 591.173,694.681 591.5,684.5C 593.167,684.5 594.833,684.5 596.5,684.5C 596.5,694.167 596.5,703.833 596.5,713.5 Z"/></g>
<g><path style="opacity:1" fill="#131313" d="M 592.5,714.5 C 592.5,704.833 592.5,695.167 592.5,685.5C 593.5,685.5 594.5,685.5 595.5,685.5C 595.173,695.015 595.506,704.348 596.5,713.5C 600.872,725.334 608.372,727.667 619,720.5C 620.439,718.725 621.439,716.725 622,714.5C 622.5,704.506 622.666,694.506 622.5,684.5C 623.833,684.5 625.167,684.5 626.5,684.5C 626.667,695.172 626.5,705.839 626,716.5C 623.208,724.409 617.542,728.409 609,728.5C 599.628,728.288 594.128,723.622 592.5,714.5 Z"/></g>
<g><path style="opacity:1" fill="#686868" d="M 665.5,685.5 C 659.167,685.5 652.833,685.5 646.5,685.5C 646.5,699.5 646.5,713.5 646.5,727.5C 645.504,713.343 645.171,699.01 645.5,684.5C 652.354,684.176 659.021,684.509 665.5,685.5 Z"/></g>
<g><path style="opacity:1" fill="#151515" d="M 665.5,685.5 C 674.759,686.103 680.759,690.77 683.5,699.5C 684.196,706.493 683.196,713.16 680.5,719.5C 677.221,722.269 673.555,724.436 669.5,726C 661.895,727.311 654.228,727.811 646.5,727.5C 646.5,713.5 646.5,699.5 646.5,685.5C 652.833,685.5 659.167,685.5 665.5,685.5 Z"/></g>
<g><path style="opacity:1" fill="#6a6a6a" d="M 706.5,703.5 C 705.513,698.695 705.179,693.695 705.5,688.5C 712.833,688.5 720.167,688.5 727.5,688.5C 727.5,687.5 727.5,686.5 727.5,685.5C 719.167,685.5 710.833,685.5 702.5,685.5C 702.5,699.5 702.5,713.5 702.5,727.5C 701.504,713.343 701.171,699.01 701.5,684.5C 710.5,684.5 719.5,684.5 728.5,684.5C 728.5,686.167 728.5,687.833 728.5,689.5C 721.167,689.5 713.833,689.5 706.5,689.5C 706.5,694.167 706.5,698.833 706.5,703.5 Z"/></g>
<g><path style="opacity:1" fill="#080808" d="M 706.5,703.5 C 712.679,704.167 719.012,704.833 725.5,705.5C 719.012,706.167 712.679,706.833 706.5,707.5C 706.5,712.833 706.5,718.167 706.5,723.5C 713.648,724.492 720.981,724.825 728.5,724.5C 728.5,725.5 728.5,726.5 728.5,727.5C 719.833,727.5 711.167,727.5 702.5,727.5C 702.5,713.5 702.5,699.5 702.5,685.5C 710.833,685.5 719.167,685.5 727.5,685.5C 727.5,686.5 727.5,687.5 727.5,688.5C 720.167,688.5 712.833,688.5 705.5,688.5C 705.179,693.695 705.513,698.695 706.5,703.5 Z"/></g>
<g><path style="opacity:1" fill="#383838" d="M 767.5,685.5 C 761.167,685.5 754.833,685.5 748.5,685.5C 748.5,699.5 748.5,713.5 748.5,727.5C 747.504,713.343 747.171,699.01 747.5,684.5C 754.354,684.176 761.021,684.509 767.5,685.5 Z"/></g>
<g><path style="opacity:1" fill="#111111" d="M 767.5,685.5 C 771.244,685.928 774.244,687.595 776.5,690.5C 777.833,694.5 777.833,698.5 776.5,702.5C 774.135,704.86 771.468,706.86 768.5,708.5C 772.892,714.228 776.892,720.228 780.5,726.5C 778.833,727.833 777.167,727.833 775.5,726.5C 772.304,720.753 768.638,715.419 764.5,710.5C 760.627,708.57 756.294,707.903 751.5,708.5C 751.5,714.833 751.5,721.167 751.5,727.5C 750.5,727.5 749.5,727.5 748.5,727.5C 748.5,713.5 748.5,699.5 748.5,685.5C 754.833,685.5 761.167,685.5 767.5,685.5 Z"/></g>
<g><path style="opacity:1" fill="#181818" d="M 837.5,695.5 C 838.903,700.387 839.569,705.387 839.5,710.5C 837.427,719.741 831.76,725.574 822.5,728C 812.944,729.427 804.944,726.593 798.5,719.5C 799.736,718.643 801.069,717.977 802.5,717.5C 810.146,725.373 818.813,726.54 828.5,721C 835.182,714.936 837.349,707.436 835,698.5C 827.682,688.202 818.182,685.702 806.5,691C 800.028,695.91 797.695,702.41 799.5,710.5C 798.167,710.5 796.833,710.5 795.5,710.5C 795.431,705.387 796.097,700.387 797.5,695.5C 801.646,687.84 808.146,684.173 817,684.5C 826.243,683.95 833.076,687.617 837.5,695.5 Z"/></g>
<g><path style="opacity:1" fill="#9c9c9c" d="M 271.5,688.5 C 275.833,688.5 280.167,688.5 284.5,688.5C 284.5,701.5 284.5,714.5 284.5,727.5C 283.505,715.011 283.171,702.344 283.5,689.5C 279.298,689.817 275.298,689.483 271.5,688.5 Z"/></g>
<g><path style="opacity:1" fill="#939393" d="M 301.5,688.5 C 297.702,689.483 293.702,689.817 289.5,689.5C 289.829,702.344 289.495,715.011 288.5,727.5C 288.5,714.5 288.5,701.5 288.5,688.5C 292.833,688.5 297.167,688.5 301.5,688.5 Z"/></g>
<g><path style="opacity:1" fill="#bdbdbd" d="M 665.5,689.5 C 660.833,689.5 656.167,689.5 651.5,689.5C 651.5,700.833 651.5,712.167 651.5,723.5C 650.505,712.012 650.172,700.345 650.5,688.5C 655.695,688.179 660.695,688.513 665.5,689.5 Z"/></g>
<g><path style="opacity:1" fill="#fafafa" d="M 665.5,689.5 C 672.184,690.032 676.684,693.366 679,699.5C 681.876,712.26 677.042,720.093 664.5,723C 660.179,723.499 655.846,723.666 651.5,723.5C 651.5,712.167 651.5,700.833 651.5,689.5C 656.167,689.5 660.833,689.5 665.5,689.5 Z"/></g>
<g><path style="opacity:1" fill="#919191" d="M 766.5,689.5 C 761.833,689.5 757.167,689.5 752.5,689.5C 752.5,694.5 752.5,699.5 752.5,704.5C 751.512,699.36 751.179,694.026 751.5,688.5C 756.695,688.179 761.695,688.513 766.5,689.5 Z"/></g>
<g><path style="opacity:1" fill="#f8f8f8" d="M 766.5,689.5 C 773.104,690.334 775.271,694.001 773,700.5C 771.421,702.041 769.587,703.208 767.5,704C 762.511,704.499 757.511,704.666 752.5,704.5C 752.5,699.5 752.5,694.5 752.5,689.5C 757.167,689.5 761.833,689.5 766.5,689.5 Z"/></g>
<g><path style="opacity:1" fill="#e6e6e6" d="M 245.5,706.5 C 240.944,708.442 235.944,709.108 230.5,708.5C 230.5,707.5 230.5,706.5 230.5,705.5C 232.288,699.924 234.622,694.59 237.5,689.5C 239.146,690.779 240.313,692.445 241,694.5C 242.766,698.372 244.266,702.372 245.5,706.5 Z"/></g>
<g><path style="opacity:1" fill="#e8e8e8" d="M 342.5,707.5 C 337.652,708.814 332.652,708.814 327.5,707.5C 328.946,705.382 329.613,703.049 329.5,700.5C 330.374,697.081 331.54,693.748 333,690.5C 333.718,689.549 334.551,689.383 335.5,690C 338.219,695.74 340.552,701.573 342.5,707.5 Z"/></g>
<g><path style="opacity:1" fill="#6d6d6d" d="M 776.5,690.5 C 777.117,690.611 777.617,690.944 778,691.5C 778.667,694.833 778.667,698.167 778,701.5C 777.617,702.056 777.117,702.389 776.5,702.5C 777.833,698.5 777.833,694.5 776.5,690.5 Z"/></g>
<g><path style="opacity:1" fill="#b8b8b8" d="M 544.5,696.5 C 543.593,702.106 543.26,707.773 543.5,713.5C 541.953,711.193 541.287,708.527 541.5,705.5C 541.667,703.5 541.833,701.5 542,699.5C 542.377,698.058 543.21,697.058 544.5,696.5 Z"/></g>
<g><path style="opacity:1" fill="#464646" d="M 166.5,691.5 C 165.505,703.322 165.172,715.322 165.5,727.5C 165.167,727.5 164.833,727.5 164.5,727.5C 164.168,715.149 164.501,702.815 165.5,690.5C 166.107,690.624 166.44,690.957 166.5,691.5 Z"/></g>
<g><path style="opacity:1" fill="#c1c1c1" d="M 166.5,691.5 C 167.338,691.842 167.672,692.508 167.5,693.5C 166.833,704.833 166.167,716.167 165.5,727.5C 165.172,715.322 165.505,703.322 166.5,691.5 Z"/></g>
<g><path style="opacity:1" fill="#5a5a5a" d="M 797.5,695.5 C 796.097,700.387 795.431,705.387 795.5,710.5C 794.359,707.36 794.192,704.027 795,700.5C 795.099,698.347 795.933,696.681 797.5,695.5 Z"/></g>
<g><path style="opacity:1" fill="#5e5e5e" d="M 837.5,695.5 C 839.067,696.681 839.901,698.347 840,700.5C 840.808,704.027 840.641,707.36 839.5,710.5C 839.569,705.387 838.903,700.387 837.5,695.5 Z"/></g>
<g><path style="opacity:1" fill="#373737" d="M 450.5,703.5 C 457.167,703.5 463.833,703.5 470.5,703.5C 470.5,704.833 470.5,706.167 470.5,707.5C 463.833,707.5 457.167,707.5 450.5,707.5C 456.679,706.833 463.012,706.167 469.5,705.5C 463.012,704.833 456.679,704.167 450.5,703.5 Z"/></g>
<g><path style="opacity:1" fill="#373737" d="M 706.5,703.5 C 713.167,703.5 719.833,703.5 726.5,703.5C 726.5,704.833 726.5,706.167 726.5,707.5C 719.833,707.5 713.167,707.5 706.5,707.5C 712.679,706.833 719.012,706.167 725.5,705.5C 719.012,704.833 712.679,704.167 706.5,703.5 Z"/></g>
<g><path style="opacity:1" fill="#989898" d="M 230.5,705.5 C 230.5,706.5 230.5,707.5 230.5,708.5C 235.944,709.108 240.944,708.442 245.5,706.5C 246.404,707.209 246.737,708.209 246.5,709.5C 240.833,709.5 235.167,709.5 229.5,709.5C 229.232,707.901 229.566,706.568 230.5,705.5 Z"/></g>
<g><path style="opacity:1" fill="#9c9c9c" d="M 329.5,700.5 C 329.613,703.049 328.946,705.382 327.5,707.5C 332.652,708.814 337.652,708.814 342.5,707.5C 343.043,707.56 343.376,707.893 343.5,708.5C 337.872,709.495 332.206,709.829 326.5,709.5C 326.528,706.084 327.528,703.084 329.5,700.5 Z"/></g>
<g><path style="opacity:1" fill="#cdcdcd" d="M 450.5,707.5 C 457.167,707.5 463.833,707.5 470.5,707.5C 464.355,708.49 458.022,708.823 451.5,708.5C 451.5,713.5 451.5,718.5 451.5,723.5C 451.167,723.5 450.833,723.5 450.5,723.5C 450.5,718.167 450.5,712.833 450.5,707.5 Z"/></g>
<g><path style="opacity:1" fill="#cdcdcd" d="M 706.5,707.5 C 713.167,707.5 719.833,707.5 726.5,707.5C 720.355,708.49 714.022,708.823 707.5,708.5C 707.5,713.5 707.5,718.5 707.5,723.5C 707.167,723.5 706.833,723.5 706.5,723.5C 706.5,718.167 706.5,712.833 706.5,707.5 Z"/></g>
<g><path style="opacity:1" fill="#9d9d9d" d="M 764.5,710.5 C 760.6,709.57 756.6,709.237 752.5,709.5C 752.823,715.69 752.49,721.69 751.5,727.5C 751.5,721.167 751.5,714.833 751.5,708.5C 756.294,707.903 760.627,708.57 764.5,710.5 Z"/></g>
<g><path style="opacity:1" fill="#c9c9c9" d="M 249.5,716.5 C 248.711,716.217 248.044,715.717 247.5,715C 240.842,714.5 234.175,714.334 227.5,714.5C 227.206,717.754 225.873,720.421 223.5,722.5C 224.1,719.702 225.1,717.035 226.5,714.5C 233.811,713.335 241.144,713.169 248.5,714C 249.252,714.671 249.586,715.504 249.5,716.5 Z"/></g>
<g><path style="opacity:1" fill="#a9a9a9" d="M 683.5,699.5 C 684.993,705.803 684.659,712.136 682.5,718.5C 682.043,719.298 681.376,719.631 680.5,719.5C 683.196,713.16 684.196,706.493 683.5,699.5 Z"/></g>
<g><path style="opacity:1" fill="#686868" d="M 573.5,725.5 C 573.5,724.5 573.5,723.5 573.5,722.5C 572.167,722.5 570.833,722.5 569.5,722.5C 570.527,721.152 571.86,720.652 573.5,721C 574.801,722.616 574.801,724.116 573.5,725.5 Z"/></g>
<g><path style="opacity:1" fill="#414141" d="M 377.5,723.5 C 384.5,723.5 391.5,723.5 398.5,723.5C 398.768,725.099 398.434,726.432 397.5,727.5C 397.5,726.5 397.5,725.5 397.5,724.5C 390.646,724.824 383.979,724.491 377.5,723.5 Z"/></g>
<g><path style="opacity:1" fill="#3c3c3c" d="M 450.5,723.5 C 450.833,723.5 451.167,723.5 451.5,723.5C 458.833,723.5 466.167,723.5 473.5,723.5C 473.768,725.099 473.434,726.432 472.5,727.5C 472.5,726.5 472.5,725.5 472.5,724.5C 464.981,724.825 457.648,724.492 450.5,723.5 Z"/></g>
<g><path style="opacity:1" fill="#3c3c3c" d="M 706.5,723.5 C 706.833,723.5 707.167,723.5 707.5,723.5C 714.833,723.5 722.167,723.5 729.5,723.5C 729.768,725.099 729.434,726.432 728.5,727.5C 728.5,726.5 728.5,725.5 728.5,724.5C 720.981,724.825 713.648,724.492 706.5,723.5 Z"/></g>
</svg>
